<?xml version="1.0" encoding="UTF-8" standalone="no" ?>
<!DOCTYPE svg PUBLIC "-//W3C//DTD SVG 1.1//EN" "http://www.w3.org/Graphics/SVG/1.1/DTD/svg11.dtd">
<svg xmlns="http://www.w3.org/2000/svg" xmlns:xlink="http://www.w3.org/1999/xlink" version="1.1" width="40" height="20" viewBox="0 0 40 20" xml:space="preserve">
<desc>Created with Fabric.js 4.6.0</desc>
<defs>
</defs>
<g transform="matrix(0 0.09 0.36 0 0.97 0.24)" id="0UI9G6mzA2oIL9GvMP6pf"  >
<path style="stroke: rgb(139,52,162); stroke-width: 0; stroke-dasharray: none; stroke-linecap: butt; stroke-dashoffset: 0; stroke-linejoin: miter; stroke-miterlimit: 4; fill: rgb(0,0,0); fill-rule: nonzero; opacity: 1;" vector-effect="non-scaling-stroke"  transform=" translate(0, 0)" d="M -2.44499 -2.44499 L 2.44499 -2.44499 L 2.44499 2.44499 L -2.44499 2.44499 z" stroke-linecap="round" />
</g>
<g transform="matrix(0 0.09 0.36 0 3.21 0.24)" id="yN_8upsWGvMM9i8nM9Os6"  >
<path style="stroke: rgb(139,52,162); stroke-width: 0; stroke-dasharray: none; stroke-linecap: butt; stroke-dashoffset: 0; stroke-linejoin: miter; stroke-miterlimit: 4; fill: rgb(0,0,0); fill-rule: nonzero; opacity: 1;" vector-effect="non-scaling-stroke"  transform=" translate(0, 0)" d="M -2.44499 -2.44499 L 2.44499 -2.44499 L 2.44499 2.44499 L -2.44499 2.44499 z" stroke-linecap="round" />
</g>
<g transform="matrix(0 0.09 0.36 0 0.96 0.24)" id="ZeGb26rEXitCpvZ-FPRto"  >
<path style="stroke: rgb(139,52,162); stroke-width: 0; stroke-dasharray: none; stroke-linecap: butt; stroke-dashoffset: 0; stroke-linejoin: miter; stroke-miterlimit: 4; fill: rgb(0,0,0); fill-rule: nonzero; opacity: 1;" vector-effect="non-scaling-stroke"  transform=" translate(0, 0)" d="M -2.44499 -2.44499 L 2.44499 -2.44499 L 2.44499 2.44499 L -2.44499 2.44499 z" stroke-linecap="round" />
</g>
<g transform="matrix(0 0.09 0.36 0 3.22 0.24)" id="9uC72o-nudbz5ZaZ8iJiN"  >
<path style="stroke: rgb(139,52,162); stroke-width: 0; stroke-dasharray: none; stroke-linecap: butt; stroke-dashoffset: 0; stroke-linejoin: miter; stroke-miterlimit: 4; fill: rgb(0,0,0); fill-rule: nonzero; opacity: 1;" vector-effect="non-scaling-stroke"  transform=" translate(0, 0)" d="M -2.44499 -2.44499 L 2.44499 -2.44499 L 2.44499 2.44499 L -2.44499 2.44499 z" stroke-linecap="round" />
</g>
<g transform="matrix(0 0.09 0.36 0 5.46 0.24)" id="cyZ6kbC1PjadUwQDLnwrM"  >
<path style="stroke: rgb(139,52,162); stroke-width: 0; stroke-dasharray: none; stroke-linecap: butt; stroke-dashoffset: 0; stroke-linejoin: miter; stroke-miterlimit: 4; fill: rgb(0,0,0); fill-rule: nonzero; opacity: 1;" vector-effect="non-scaling-stroke"  transform=" translate(0, 0)" d="M -2.44499 -2.44499 L 2.44499 -2.44499 L 2.44499 2.44499 L -2.44499 2.44499 z" stroke-linecap="round" />
</g>
<g transform="matrix(0 0.09 0.36 0 7.72 0.24)" id="Td_E24G3hzx9by5sDmVFn"  >
<path style="stroke: rgb(139,52,162); stroke-width: 0; stroke-dasharray: none; stroke-linecap: butt; stroke-dashoffset: 0; stroke-linejoin: miter; stroke-miterlimit: 4; fill: rgb(0,0,0); fill-rule: nonzero; opacity: 1;" vector-effect="non-scaling-stroke"  transform=" translate(0, 0)" d="M -2.44499 -2.44499 L 2.44499 -2.44499 L 2.44499 2.44499 L -2.44499 2.44499 z" stroke-linecap="round" />
</g>
<g transform="matrix(0 0.09 0.36 0 10.16 0.24)" id="I3ZDXok9yslAJ9nuZCOeZ"  >
<path style="stroke: rgb(139,52,162); stroke-width: 0; stroke-dasharray: none; stroke-linecap: butt; stroke-dashoffset: 0; stroke-linejoin: miter; stroke-miterlimit: 4; fill: rgb(0,0,0); fill-rule: nonzero; opacity: 1;" vector-effect="non-scaling-stroke"  transform=" translate(0, 0)" d="M -2.44499 -2.44499 L 2.44499 -2.44499 L 2.44499 2.44499 L -2.44499 2.44499 z" stroke-linecap="round" />
</g>
<g transform="matrix(0 0.09 0.36 0 12.41 0.24)" id="GYIsMDPJShLtIpmSTlQTf"  >
<path style="stroke: rgb(139,52,162); stroke-width: 0; stroke-dasharray: none; stroke-linecap: butt; stroke-dashoffset: 0; stroke-linejoin: miter; stroke-miterlimit: 4; fill: rgb(0,0,0); fill-rule: nonzero; opacity: 1;" vector-effect="non-scaling-stroke"  transform=" translate(0, 0)" d="M -2.44499 -2.44499 L 2.44499 -2.44499 L 2.44499 2.44499 L -2.44499 2.44499 z" stroke-linecap="round" />
</g>
<g transform="matrix(0 0.09 0.36 0 10.15 0.24)" id="lftvFvwLNxBEVJsdsVA0_"  >
<path style="stroke: rgb(139,52,162); stroke-width: 0; stroke-dasharray: none; stroke-linecap: butt; stroke-dashoffset: 0; stroke-linejoin: miter; stroke-miterlimit: 4; fill: rgb(0,0,0); fill-rule: nonzero; opacity: 1;" vector-effect="non-scaling-stroke"  transform=" translate(0, 0)" d="M -2.44499 -2.44499 L 2.44499 -2.44499 L 2.44499 2.44499 L -2.44499 2.44499 z" stroke-linecap="round" />
</g>
<g transform="matrix(0 0.09 0.36 0 12.41 0.24)" id="K-rGkDfoCV3Otx2XqfpWm"  >
<path style="stroke: rgb(139,52,162); stroke-width: 0; stroke-dasharray: none; stroke-linecap: butt; stroke-dashoffset: 0; stroke-linejoin: miter; stroke-miterlimit: 4; fill: rgb(0,0,0); fill-rule: nonzero; opacity: 1;" vector-effect="non-scaling-stroke"  transform=" translate(0, 0)" d="M -2.44499 -2.44499 L 2.44499 -2.44499 L 2.44499 2.44499 L -2.44499 2.44499 z" stroke-linecap="round" />
</g>
<g transform="matrix(0 0.09 0.36 0 14.65 0.24)" id="1RKniX-7dtt47ilqphIAk"  >
<path style="stroke: rgb(139,52,162); stroke-width: 0; stroke-dasharray: none; stroke-linecap: butt; stroke-dashoffset: 0; stroke-linejoin: miter; stroke-miterlimit: 4; fill: rgb(0,0,0); fill-rule: nonzero; opacity: 1;" vector-effect="non-scaling-stroke"  transform=" translate(0, 0)" d="M -2.44499 -2.44499 L 2.44499 -2.44499 L 2.44499 2.44499 L -2.44499 2.44499 z" stroke-linecap="round" />
</g>
<g transform="matrix(0 0.09 0.36 0 16.91 0.24)" id="W6wvAgN_3-qQ_f_WMeYgN"  >
<path style="stroke: rgb(139,52,162); stroke-width: 0; stroke-dasharray: none; stroke-linecap: butt; stroke-dashoffset: 0; stroke-linejoin: miter; stroke-miterlimit: 4; fill: rgb(0,0,0); fill-rule: nonzero; opacity: 1;" vector-effect="non-scaling-stroke"  transform=" translate(0, 0)" d="M -2.44499 -2.44499 L 2.44499 -2.44499 L 2.44499 2.44499 L -2.44499 2.44499 z" stroke-linecap="round" />
</g>
<g transform="matrix(0 0.09 0.36 0 19.21 0.24)" id="w_BlvXTrIIWc123pI7iRK"  >
<path style="stroke: rgb(139,52,162); stroke-width: 0; stroke-dasharray: none; stroke-linecap: butt; stroke-dashoffset: 0; stroke-linejoin: miter; stroke-miterlimit: 4; fill: rgb(0,0,0); fill-rule: nonzero; opacity: 1;" vector-effect="non-scaling-stroke"  transform=" translate(0, 0)" d="M -2.44499 -2.44499 L 2.44499 -2.44499 L 2.44499 2.44499 L -2.44499 2.44499 z" stroke-linecap="round" />
</g>
<g transform="matrix(0 0.09 0.36 0 21.46 0.24)" id="TPOE8YxIJO1M9Eufbc7v3"  >
<path style="stroke: rgb(139,52,162); stroke-width: 0; stroke-dasharray: none; stroke-linecap: butt; stroke-dashoffset: 0; stroke-linejoin: miter; stroke-miterlimit: 4; fill: rgb(0,0,0); fill-rule: nonzero; opacity: 1;" vector-effect="non-scaling-stroke"  transform=" translate(0, 0)" d="M -2.44499 -2.44499 L 2.44499 -2.44499 L 2.44499 2.44499 L -2.44499 2.44499 z" stroke-linecap="round" />
</g>
<g transform="matrix(0 0.09 0.36 0 19.2 0.24)" id="HxllHUv1TEtmjHaKESh5v"  >
<path style="stroke: rgb(139,52,162); stroke-width: 0; stroke-dasharray: none; stroke-linecap: butt; stroke-dashoffset: 0; stroke-linejoin: miter; stroke-miterlimit: 4; fill: rgb(0,0,0); fill-rule: nonzero; opacity: 1;" vector-effect="non-scaling-stroke"  transform=" translate(0, 0)" d="M -2.44499 -2.44499 L 2.44499 -2.44499 L 2.44499 2.44499 L -2.44499 2.44499 z" stroke-linecap="round" />
</g>
<g transform="matrix(0 0.09 0.36 0 21.46 0.24)" id="uPqPtoKCQTRTH4STj13FX"  >
<path style="stroke: rgb(139,52,162); stroke-width: 0; stroke-dasharray: none; stroke-linecap: butt; stroke-dashoffset: 0; stroke-linejoin: miter; stroke-miterlimit: 4; fill: rgb(0,0,0); fill-rule: nonzero; opacity: 1;" vector-effect="non-scaling-stroke"  transform=" translate(0, 0)" d="M -2.44499 -2.44499 L 2.44499 -2.44499 L 2.44499 2.44499 L -2.44499 2.44499 z" stroke-linecap="round" />
</g>
<g transform="matrix(0 0.09 0.36 0 23.7 0.24)" id="ek_z79SZ93wf_TyXACWEz"  >
<path style="stroke: rgb(139,52,162); stroke-width: 0; stroke-dasharray: none; stroke-linecap: butt; stroke-dashoffset: 0; stroke-linejoin: miter; stroke-miterlimit: 4; fill: rgb(0,0,0); fill-rule: nonzero; opacity: 1;" vector-effect="non-scaling-stroke"  transform=" translate(0, 0)" d="M -2.44499 -2.44499 L 2.44499 -2.44499 L 2.44499 2.44499 L -2.44499 2.44499 z" stroke-linecap="round" />
</g>
<g transform="matrix(0 0.09 0.36 0 25.96 0.24)" id="LnUiJX9jMEetePVgIW0U3"  >
<path style="stroke: rgb(139,52,162); stroke-width: 0; stroke-dasharray: none; stroke-linecap: butt; stroke-dashoffset: 0; stroke-linejoin: miter; stroke-miterlimit: 4; fill: rgb(0,0,0); fill-rule: nonzero; opacity: 1;" vector-effect="non-scaling-stroke"  transform=" translate(0, 0)" d="M -2.44499 -2.44499 L 2.44499 -2.44499 L 2.44499 2.44499 L -2.44499 2.44499 z" stroke-linecap="round" />
</g>
<g transform="matrix(0 0.09 0.36 0 28.41 0.24)" id="RHDGKgbzkJpC0rCfiE5g2"  >
<path style="stroke: rgb(139,52,162); stroke-width: 0; stroke-dasharray: none; stroke-linecap: butt; stroke-dashoffset: 0; stroke-linejoin: miter; stroke-miterlimit: 4; fill: rgb(0,0,0); fill-rule: nonzero; opacity: 1;" vector-effect="non-scaling-stroke"  transform=" translate(0, 0)" d="M -2.44499 -2.44499 L 2.44499 -2.44499 L 2.44499 2.44499 L -2.44499 2.44499 z" stroke-linecap="round" />
</g>
<g transform="matrix(0 0.09 0.36 0 30.66 0.24)" id="LRnBm4bWBZhzEhDJqB8ku"  >
<path style="stroke: rgb(139,52,162); stroke-width: 0; stroke-dasharray: none; stroke-linecap: butt; stroke-dashoffset: 0; stroke-linejoin: miter; stroke-miterlimit: 4; fill: rgb(0,0,0); fill-rule: nonzero; opacity: 1;" vector-effect="non-scaling-stroke"  transform=" translate(0, 0)" d="M -2.44499 -2.44499 L 2.44499 -2.44499 L 2.44499 2.44499 L -2.44499 2.44499 z" stroke-linecap="round" />
</g>
<g transform="matrix(0 0.09 0.36 0 28.4 0.24)" id="mF0tP3MRbS2kSld43S1wg"  >
<path style="stroke: rgb(139,52,162); stroke-width: 0; stroke-dasharray: none; stroke-linecap: butt; stroke-dashoffset: 0; stroke-linejoin: miter; stroke-miterlimit: 4; fill: rgb(0,0,0); fill-rule: nonzero; opacity: 1;" vector-effect="non-scaling-stroke"  transform=" translate(0, 0)" d="M -2.44499 -2.44499 L 2.44499 -2.44499 L 2.44499 2.44499 L -2.44499 2.44499 z" stroke-linecap="round" />
</g>
<g transform="matrix(0 0.09 0.36 0 30.66 0.24)" id="rEG5MZqpYcA6frM4fznEI"  >
<path style="stroke: rgb(139,52,162); stroke-width: 0; stroke-dasharray: none; stroke-linecap: butt; stroke-dashoffset: 0; stroke-linejoin: miter; stroke-miterlimit: 4; fill: rgb(0,0,0); fill-rule: nonzero; opacity: 1;" vector-effect="non-scaling-stroke"  transform=" translate(0, 0)" d="M -2.44499 -2.44499 L 2.44499 -2.44499 L 2.44499 2.44499 L -2.44499 2.44499 z" stroke-linecap="round" />
</g>
<g transform="matrix(0 0.09 0.36 0 32.9 0.24)" id="d0bbTesg6ucDvSPVoIQWy"  >
<path style="stroke: rgb(139,52,162); stroke-width: 0; stroke-dasharray: none; stroke-linecap: butt; stroke-dashoffset: 0; stroke-linejoin: miter; stroke-miterlimit: 4; fill: rgb(0,0,0); fill-rule: nonzero; opacity: 1;" vector-effect="non-scaling-stroke"  transform=" translate(0, 0)" d="M -2.44499 -2.44499 L 2.44499 -2.44499 L 2.44499 2.44499 L -2.44499 2.44499 z" stroke-linecap="round" />
</g>
<g transform="matrix(0 0.09 0.36 0 35.16 0.24)" id="GxEJaKHuF2fY-tN53dAbN"  >
<path style="stroke: rgb(139,52,162); stroke-width: 0; stroke-dasharray: none; stroke-linecap: butt; stroke-dashoffset: 0; stroke-linejoin: miter; stroke-miterlimit: 4; fill: rgb(0,0,0); fill-rule: nonzero; opacity: 1;" vector-effect="non-scaling-stroke"  transform=" translate(0, 0)" d="M -2.44499 -2.44499 L 2.44499 -2.44499 L 2.44499 2.44499 L -2.44499 2.44499 z" stroke-linecap="round" />
</g>
<g transform="matrix(0 0.09 0.36 0 36.84 0.24)" id="qZJBF6RVGPVBn9kX9KdTM"  >
<path style="stroke: rgb(139,52,162); stroke-width: 0; stroke-dasharray: none; stroke-linecap: butt; stroke-dashoffset: 0; stroke-linejoin: miter; stroke-miterlimit: 4; fill: rgb(0,0,0); fill-rule: nonzero; opacity: 1;" vector-effect="non-scaling-stroke"  transform=" translate(0, 0)" d="M -2.44499 -2.44499 L 2.44499 -2.44499 L 2.44499 2.44499 L -2.44499 2.44499 z" stroke-linecap="round" />
</g>
<g transform="matrix(0 0.09 0.36 0 39.1 0.24)" id="DLlBQa6qDLXjIRY1zux7e"  >
<path style="stroke: rgb(139,52,162); stroke-width: 0; stroke-dasharray: none; stroke-linecap: butt; stroke-dashoffset: 0; stroke-linejoin: miter; stroke-miterlimit: 4; fill: rgb(0,0,0); fill-rule: nonzero; opacity: 1;" vector-effect="non-scaling-stroke"  transform=" translate(0, 0)" d="M -2.44499 -2.44499 L 2.44499 -2.44499 L 2.44499 2.44499 L -2.44499 2.44499 z" stroke-linecap="round" />
</g>
<g transform="matrix(0 0.09 0.36 0 0.91 19.76)" id="l1K_M4pgLpGfNuRD52Pe9"  >
<path style="stroke: rgb(139,52,162); stroke-width: 0; stroke-dasharray: none; stroke-linecap: butt; stroke-dashoffset: 0; stroke-linejoin: miter; stroke-miterlimit: 4; fill: rgb(0,0,0); fill-rule: nonzero; opacity: 1;" vector-effect="non-scaling-stroke"  transform=" translate(0, 0)" d="M -2.44499 -2.44499 L 2.44499 -2.44499 L 2.44499 2.44499 L -2.44499 2.44499 z" stroke-linecap="round" />
</g>
<g transform="matrix(0 0.09 0.36 0 3.16 19.76)" id="9SVaJbhhlJYaGQz0mW39Y"  >
<path style="stroke: rgb(139,52,162); stroke-width: 0; stroke-dasharray: none; stroke-linecap: butt; stroke-dashoffset: 0; stroke-linejoin: miter; stroke-miterlimit: 4; fill: rgb(0,0,0); fill-rule: nonzero; opacity: 1;" vector-effect="non-scaling-stroke"  transform=" translate(0, 0)" d="M -2.44499 -2.44499 L 2.44499 -2.44499 L 2.44499 2.44499 L -2.44499 2.44499 z" stroke-linecap="round" />
</g>
<g transform="matrix(0 0.09 0.36 0 0.9 19.76)" id="mbFSE3jEOxelJ6t9OUycZ"  >
<path style="stroke: rgb(139,52,162); stroke-width: 0; stroke-dasharray: none; stroke-linecap: butt; stroke-dashoffset: 0; stroke-linejoin: miter; stroke-miterlimit: 4; fill: rgb(0,0,0); fill-rule: nonzero; opacity: 1;" vector-effect="non-scaling-stroke"  transform=" translate(0, 0)" d="M -2.44499 -2.44499 L 2.44499 -2.44499 L 2.44499 2.44499 L -2.44499 2.44499 z" stroke-linecap="round" />
</g>
<g transform="matrix(0 0.09 0.36 0 3.16 19.76)" id="4vIDir-dkpz2mioNg-QEc"  >
<path style="stroke: rgb(139,52,162); stroke-width: 0; stroke-dasharray: none; stroke-linecap: butt; stroke-dashoffset: 0; stroke-linejoin: miter; stroke-miterlimit: 4; fill: rgb(0,0,0); fill-rule: nonzero; opacity: 1;" vector-effect="non-scaling-stroke"  transform=" translate(0, 0)" d="M -2.44499 -2.44499 L 2.44499 -2.44499 L 2.44499 2.44499 L -2.44499 2.44499 z" stroke-linecap="round" />
</g>
<g transform="matrix(0 0.09 0.36 0 5.4 19.76)" id="qoYIzryHsQ5SCoKauGoN_"  >
<path style="stroke: rgb(139,52,162); stroke-width: 0; stroke-dasharray: none; stroke-linecap: butt; stroke-dashoffset: 0; stroke-linejoin: miter; stroke-miterlimit: 4; fill: rgb(0,0,0); fill-rule: nonzero; opacity: 1;" vector-effect="non-scaling-stroke"  transform=" translate(0, 0)" d="M -2.44499 -2.44499 L 2.44499 -2.44499 L 2.44499 2.44499 L -2.44499 2.44499 z" stroke-linecap="round" />
</g>
<g transform="matrix(0 0.09 0.36 0 7.66 19.76)" id="9_TbcQb53_s7ackvJqzTS"  >
<path style="stroke: rgb(139,52,162); stroke-width: 0; stroke-dasharray: none; stroke-linecap: butt; stroke-dashoffset: 0; stroke-linejoin: miter; stroke-miterlimit: 4; fill: rgb(0,0,0); fill-rule: nonzero; opacity: 1;" vector-effect="non-scaling-stroke"  transform=" translate(0, 0)" d="M -2.44499 -2.44499 L 2.44499 -2.44499 L 2.44499 2.44499 L -2.44499 2.44499 z" stroke-linecap="round" />
</g>
<g transform="matrix(0 0.09 0.36 0 10.11 19.76)" id="ExJcDgfEUIp-YWwYxTGRA"  >
<path style="stroke: rgb(139,52,162); stroke-width: 0; stroke-dasharray: none; stroke-linecap: butt; stroke-dashoffset: 0; stroke-linejoin: miter; stroke-miterlimit: 4; fill: rgb(0,0,0); fill-rule: nonzero; opacity: 1;" vector-effect="non-scaling-stroke"  transform=" translate(0, 0)" d="M -2.44499 -2.44499 L 2.44499 -2.44499 L 2.44499 2.44499 L -2.44499 2.44499 z" stroke-linecap="round" />
</g>
<g transform="matrix(0 0.09 0.36 0 12.36 19.76)" id="VCnS2Ta0y1lLTikczCX0J"  >
<path style="stroke: rgb(139,52,162); stroke-width: 0; stroke-dasharray: none; stroke-linecap: butt; stroke-dashoffset: 0; stroke-linejoin: miter; stroke-miterlimit: 4; fill: rgb(0,0,0); fill-rule: nonzero; opacity: 1;" vector-effect="non-scaling-stroke"  transform=" translate(0, 0)" d="M -2.44499 -2.44499 L 2.44499 -2.44499 L 2.44499 2.44499 L -2.44499 2.44499 z" stroke-linecap="round" />
</g>
<g transform="matrix(0 0.09 0.36 0 10.1 19.76)" id="hJdiwaA3q7zJEVrTjWrSt"  >
<path style="stroke: rgb(139,52,162); stroke-width: 0; stroke-dasharray: none; stroke-linecap: butt; stroke-dashoffset: 0; stroke-linejoin: miter; stroke-miterlimit: 4; fill: rgb(0,0,0); fill-rule: nonzero; opacity: 1;" vector-effect="non-scaling-stroke"  transform=" translate(0, 0)" d="M -2.44499 -2.44499 L 2.44499 -2.44499 L 2.44499 2.44499 L -2.44499 2.44499 z" stroke-linecap="round" />
</g>
<g transform="matrix(0 0.09 0.36 0 12.36 19.76)" id="2dpRkg19X0ih6O-aIfLP9"  >
<path style="stroke: rgb(139,52,162); stroke-width: 0; stroke-dasharray: none; stroke-linecap: butt; stroke-dashoffset: 0; stroke-linejoin: miter; stroke-miterlimit: 4; fill: rgb(0,0,0); fill-rule: nonzero; opacity: 1;" vector-effect="non-scaling-stroke"  transform=" translate(0, 0)" d="M -2.44499 -2.44499 L 2.44499 -2.44499 L 2.44499 2.44499 L -2.44499 2.44499 z" stroke-linecap="round" />
</g>
<g transform="matrix(0 0.09 0.36 0 14.6 19.76)" id="mSnRklTsy4NolQPOMKkH5"  >
<path style="stroke: rgb(139,52,162); stroke-width: 0; stroke-dasharray: none; stroke-linecap: butt; stroke-dashoffset: 0; stroke-linejoin: miter; stroke-miterlimit: 4; fill: rgb(0,0,0); fill-rule: nonzero; opacity: 1;" vector-effect="non-scaling-stroke"  transform=" translate(0, 0)" d="M -2.44499 -2.44499 L 2.44499 -2.44499 L 2.44499 2.44499 L -2.44499 2.44499 z" stroke-linecap="round" />
</g>
<g transform="matrix(0 0.09 0.36 0 16.86 19.76)" id="mJRtl0iCJDlDvZQDCO7M3"  >
<path style="stroke: rgb(139,52,162); stroke-width: 0; stroke-dasharray: none; stroke-linecap: butt; stroke-dashoffset: 0; stroke-linejoin: miter; stroke-miterlimit: 4; fill: rgb(0,0,0); fill-rule: nonzero; opacity: 1;" vector-effect="non-scaling-stroke"  transform=" translate(0, 0)" d="M -2.44499 -2.44499 L 2.44499 -2.44499 L 2.44499 2.44499 L -2.44499 2.44499 z" stroke-linecap="round" />
</g>
<g transform="matrix(0 0.09 0.36 0 19.15 19.76)" id="Osn2WmCCQNfoFxZbtVHIE"  >
<path style="stroke: rgb(139,52,162); stroke-width: 0; stroke-dasharray: none; stroke-linecap: butt; stroke-dashoffset: 0; stroke-linejoin: miter; stroke-miterlimit: 4; fill: rgb(0,0,0); fill-rule: nonzero; opacity: 1;" vector-effect="non-scaling-stroke"  transform=" translate(0, 0)" d="M -2.44499 -2.44499 L 2.44499 -2.44499 L 2.44499 2.44499 L -2.44499 2.44499 z" stroke-linecap="round" />
</g>
<g transform="matrix(0 0.09 0.36 0 21.4 19.76)" id="MFsyRpWZ-om2gxa6IORl5"  >
<path style="stroke: rgb(139,52,162); stroke-width: 0; stroke-dasharray: none; stroke-linecap: butt; stroke-dashoffset: 0; stroke-linejoin: miter; stroke-miterlimit: 4; fill: rgb(0,0,0); fill-rule: nonzero; opacity: 1;" vector-effect="non-scaling-stroke"  transform=" translate(0, 0)" d="M -2.44499 -2.44499 L 2.44499 -2.44499 L 2.44499 2.44499 L -2.44499 2.44499 z" stroke-linecap="round" />
</g>
<g transform="matrix(0 0.09 0.36 0 19.14 19.76)" id="psbP-NwnyhpDMGNlGDdCt"  >
<path style="stroke: rgb(139,52,162); stroke-width: 0; stroke-dasharray: none; stroke-linecap: butt; stroke-dashoffset: 0; stroke-linejoin: miter; stroke-miterlimit: 4; fill: rgb(0,0,0); fill-rule: nonzero; opacity: 1;" vector-effect="non-scaling-stroke"  transform=" translate(0, 0)" d="M -2.44499 -2.44499 L 2.44499 -2.44499 L 2.44499 2.44499 L -2.44499 2.44499 z" stroke-linecap="round" />
</g>
<g transform="matrix(0 0.09 0.36 0 21.4 19.76)" id="u-q6yvGc6zILDHLQ6YzII"  >
<path style="stroke: rgb(139,52,162); stroke-width: 0; stroke-dasharray: none; stroke-linecap: butt; stroke-dashoffset: 0; stroke-linejoin: miter; stroke-miterlimit: 4; fill: rgb(0,0,0); fill-rule: nonzero; opacity: 1;" vector-effect="non-scaling-stroke"  transform=" translate(0, 0)" d="M -2.44499 -2.44499 L 2.44499 -2.44499 L 2.44499 2.44499 L -2.44499 2.44499 z" stroke-linecap="round" />
</g>
<g transform="matrix(0 0.09 0.36 0 23.64 19.76)" id="en28xvYVjimXGAjQBofFx"  >
<path style="stroke: rgb(139,52,162); stroke-width: 0; stroke-dasharray: none; stroke-linecap: butt; stroke-dashoffset: 0; stroke-linejoin: miter; stroke-miterlimit: 4; fill: rgb(0,0,0); fill-rule: nonzero; opacity: 1;" vector-effect="non-scaling-stroke"  transform=" translate(0, 0)" d="M -2.44499 -2.44499 L 2.44499 -2.44499 L 2.44499 2.44499 L -2.44499 2.44499 z" stroke-linecap="round" />
</g>
<g transform="matrix(0 0.09 0.36 0 25.9 19.76)" id="DSNLKSQuL5pWzkCUTzgzq"  >
<path style="stroke: rgb(139,52,162); stroke-width: 0; stroke-dasharray: none; stroke-linecap: butt; stroke-dashoffset: 0; stroke-linejoin: miter; stroke-miterlimit: 4; fill: rgb(0,0,0); fill-rule: nonzero; opacity: 1;" vector-effect="non-scaling-stroke"  transform=" translate(0, 0)" d="M -2.44499 -2.44499 L 2.44499 -2.44499 L 2.44499 2.44499 L -2.44499 2.44499 z" stroke-linecap="round" />
</g>
<g transform="matrix(0 0.09 0.36 0 28.35 19.76)" id="o2_SeV7U-qVy89C1SrfF3"  >
<path style="stroke: rgb(139,52,162); stroke-width: 0; stroke-dasharray: none; stroke-linecap: butt; stroke-dashoffset: 0; stroke-linejoin: miter; stroke-miterlimit: 4; fill: rgb(0,0,0); fill-rule: nonzero; opacity: 1;" vector-effect="non-scaling-stroke"  transform=" translate(0, 0)" d="M -2.44499 -2.44499 L 2.44499 -2.44499 L 2.44499 2.44499 L -2.44499 2.44499 z" stroke-linecap="round" />
</g>
<g transform="matrix(0 0.09 0.36 0 30.6 19.76)" id="yKxSCxY3Lf8cyxCKPvS65"  >
<path style="stroke: rgb(139,52,162); stroke-width: 0; stroke-dasharray: none; stroke-linecap: butt; stroke-dashoffset: 0; stroke-linejoin: miter; stroke-miterlimit: 4; fill: rgb(0,0,0); fill-rule: nonzero; opacity: 1;" vector-effect="non-scaling-stroke"  transform=" translate(0, 0)" d="M -2.44499 -2.44499 L 2.44499 -2.44499 L 2.44499 2.44499 L -2.44499 2.44499 z" stroke-linecap="round" />
</g>
<g transform="matrix(0 0.09 0.36 0 28.34 19.76)" id="PNnyCIvXlmpAi808rltKL"  >
<path style="stroke: rgb(139,52,162); stroke-width: 0; stroke-dasharray: none; stroke-linecap: butt; stroke-dashoffset: 0; stroke-linejoin: miter; stroke-miterlimit: 4; fill: rgb(0,0,0); fill-rule: nonzero; opacity: 1;" vector-effect="non-scaling-stroke"  transform=" translate(0, 0)" d="M -2.44499 -2.44499 L 2.44499 -2.44499 L 2.44499 2.44499 L -2.44499 2.44499 z" stroke-linecap="round" />
</g>
<g transform="matrix(0 0.09 0.36 0 30.6 19.76)" id="XTdypTjb3WeVMMaqjtkox"  >
<path style="stroke: rgb(139,52,162); stroke-width: 0; stroke-dasharray: none; stroke-linecap: butt; stroke-dashoffset: 0; stroke-linejoin: miter; stroke-miterlimit: 4; fill: rgb(0,0,0); fill-rule: nonzero; opacity: 1;" vector-effect="non-scaling-stroke"  transform=" translate(0, 0)" d="M -2.44499 -2.44499 L 2.44499 -2.44499 L 2.44499 2.44499 L -2.44499 2.44499 z" stroke-linecap="round" />
</g>
<g transform="matrix(0 0.09 0.36 0 32.84 19.76)" id="bHi2HO7JB-IgIcHiiekdd"  >
<path style="stroke: rgb(139,52,162); stroke-width: 0; stroke-dasharray: none; stroke-linecap: butt; stroke-dashoffset: 0; stroke-linejoin: miter; stroke-miterlimit: 4; fill: rgb(0,0,0); fill-rule: nonzero; opacity: 1;" vector-effect="non-scaling-stroke"  transform=" translate(0, 0)" d="M -2.44499 -2.44499 L 2.44499 -2.44499 L 2.44499 2.44499 L -2.44499 2.44499 z" stroke-linecap="round" />
</g>
<g transform="matrix(0 0.09 0.36 0 35.1 19.76)" id="1jfp4JOvmhm-xacKESHfx"  >
<path style="stroke: rgb(139,52,162); stroke-width: 0; stroke-dasharray: none; stroke-linecap: butt; stroke-dashoffset: 0; stroke-linejoin: miter; stroke-miterlimit: 4; fill: rgb(0,0,0); fill-rule: nonzero; opacity: 1;" vector-effect="non-scaling-stroke"  transform=" translate(0, 0)" d="M -2.44499 -2.44499 L 2.44499 -2.44499 L 2.44499 2.44499 L -2.44499 2.44499 z" stroke-linecap="round" />
</g>
<g transform="matrix(0 0.09 0.36 0 36.78 19.76)" id="Na8DSFCgKh7z5dEbHPk3P"  >
<path style="stroke: rgb(139,52,162); stroke-width: 0; stroke-dasharray: none; stroke-linecap: butt; stroke-dashoffset: 0; stroke-linejoin: miter; stroke-miterlimit: 4; fill: rgb(0,0,0); fill-rule: nonzero; opacity: 1;" vector-effect="non-scaling-stroke"  transform=" translate(0, 0)" d="M -2.44499 -2.44499 L 2.44499 -2.44499 L 2.44499 2.44499 L -2.44499 2.44499 z" stroke-linecap="round" />
</g>
<g transform="matrix(0 0.09 0.36 0 39.04 19.76)" id="5gyoYWxo8qhsSBb2LOiKH"  >
<path style="stroke: rgb(139,52,162); stroke-width: 0; stroke-dasharray: none; stroke-linecap: butt; stroke-dashoffset: 0; stroke-linejoin: miter; stroke-miterlimit: 4; fill: rgb(0,0,0); fill-rule: nonzero; opacity: 1;" vector-effect="non-scaling-stroke"  transform=" translate(0, 0)" d="M -2.44499 -2.44499 L 2.44499 -2.44499 L 2.44499 2.44499 L -2.44499 2.44499 z" stroke-linecap="round" />
</g>
<g transform="matrix(0 0.09 0.36 0 50.97 50.24)" id="gBmqMgUmmDIN-mZ7EnFct"  >
<path style="stroke: rgb(139,52,162); stroke-width: 0; stroke-dasharray: none; stroke-linecap: butt; stroke-dashoffset: 0; stroke-linejoin: miter; stroke-miterlimit: 4; fill: rgb(0,0,0); fill-rule: nonzero; opacity: 1;" vector-effect="non-scaling-stroke"  transform=" translate(0, 0)" d="M -2.44499 -2.44499 L 2.44499 -2.44499 L 2.44499 2.44499 L -2.44499 2.44499 z" stroke-linecap="round" />
</g>
<g transform="matrix(0 0.09 0.36 0 53.22 50.24)" id="25PzPBQ5BNpf3FC5ejJWU"  >
<path style="stroke: rgb(139,52,162); stroke-width: 0; stroke-dasharray: none; stroke-linecap: butt; stroke-dashoffset: 0; stroke-linejoin: miter; stroke-miterlimit: 4; fill: rgb(0,0,0); fill-rule: nonzero; opacity: 1;" vector-effect="non-scaling-stroke"  transform=" translate(0, 0)" d="M -2.44499 -2.44499 L 2.44499 -2.44499 L 2.44499 2.44499 L -2.44499 2.44499 z" stroke-linecap="round" />
</g>
<g transform="matrix(0 0.09 0.36 0 50.96 50.24)" id="4UA1FzePBE4LAkMFLor0g"  >
<path style="stroke: rgb(139,52,162); stroke-width: 0; stroke-dasharray: none; stroke-linecap: butt; stroke-dashoffset: 0; stroke-linejoin: miter; stroke-miterlimit: 4; fill: rgb(0,0,0); fill-rule: nonzero; opacity: 1;" vector-effect="non-scaling-stroke"  transform=" translate(0, 0)" d="M -2.44499 -2.44499 L 2.44499 -2.44499 L 2.44499 2.44499 L -2.44499 2.44499 z" stroke-linecap="round" />
</g>
<g transform="matrix(0 0.09 0.36 0 53.22 50.24)" id="eIp2BT6Oq0E-6ve-Cf8t1"  >
<path style="stroke: rgb(139,52,162); stroke-width: 0; stroke-dasharray: none; stroke-linecap: butt; stroke-dashoffset: 0; stroke-linejoin: miter; stroke-miterlimit: 4; fill: rgb(0,0,0); fill-rule: nonzero; opacity: 1;" vector-effect="non-scaling-stroke"  transform=" translate(0, 0)" d="M -2.44499 -2.44499 L 2.44499 -2.44499 L 2.44499 2.44499 L -2.44499 2.44499 z" stroke-linecap="round" />
</g>
<g transform="matrix(0 0.09 0.36 0 55.46 50.24)" id="hzuNyjh2Gr3g_ypHkj4Kf"  >
<path style="stroke: rgb(139,52,162); stroke-width: 0; stroke-dasharray: none; stroke-linecap: butt; stroke-dashoffset: 0; stroke-linejoin: miter; stroke-miterlimit: 4; fill: rgb(0,0,0); fill-rule: nonzero; opacity: 1;" vector-effect="non-scaling-stroke"  transform=" translate(0, 0)" d="M -2.44499 -2.44499 L 2.44499 -2.44499 L 2.44499 2.44499 L -2.44499 2.44499 z" stroke-linecap="round" />
</g>
<g transform="matrix(0 0.09 0.36 0 57.72 50.24)" id="4XaHvGbi6gjJTVJTRYwB5"  >
<path style="stroke: rgb(139,52,162); stroke-width: 0; stroke-dasharray: none; stroke-linecap: butt; stroke-dashoffset: 0; stroke-linejoin: miter; stroke-miterlimit: 4; fill: rgb(0,0,0); fill-rule: nonzero; opacity: 1;" vector-effect="non-scaling-stroke"  transform=" translate(0, 0)" d="M -2.44499 -2.44499 L 2.44499 -2.44499 L 2.44499 2.44499 L -2.44499 2.44499 z" stroke-linecap="round" />
</g>
<g transform="matrix(0 0.09 0.36 0 60.17 50.24)" id="IykgJNCz-MLGvjRdAudo_"  >
<path style="stroke: rgb(139,52,162); stroke-width: 0; stroke-dasharray: none; stroke-linecap: butt; stroke-dashoffset: 0; stroke-linejoin: miter; stroke-miterlimit: 4; fill: rgb(0,0,0); fill-rule: nonzero; opacity: 1;" vector-effect="non-scaling-stroke"  transform=" translate(0, 0)" d="M -2.44499 -2.44499 L 2.44499 -2.44499 L 2.44499 2.44499 L -2.44499 2.44499 z" stroke-linecap="round" />
</g>
<g transform="matrix(0 0.09 0.36 0 62.42 50.24)" id="LpWagnDpho8JLAqyPJB-5"  >
<path style="stroke: rgb(139,52,162); stroke-width: 0; stroke-dasharray: none; stroke-linecap: butt; stroke-dashoffset: 0; stroke-linejoin: miter; stroke-miterlimit: 4; fill: rgb(0,0,0); fill-rule: nonzero; opacity: 1;" vector-effect="non-scaling-stroke"  transform=" translate(0, 0)" d="M -2.44499 -2.44499 L 2.44499 -2.44499 L 2.44499 2.44499 L -2.44499 2.44499 z" stroke-linecap="round" />
</g>
<g transform="matrix(0 0.09 0.36 0 60.16 50.24)" id="jGvLDMS2IZhstj0maMRYH"  >
<path style="stroke: rgb(139,52,162); stroke-width: 0; stroke-dasharray: none; stroke-linecap: butt; stroke-dashoffset: 0; stroke-linejoin: miter; stroke-miterlimit: 4; fill: rgb(0,0,0); fill-rule: nonzero; opacity: 1;" vector-effect="non-scaling-stroke"  transform=" translate(0, 0)" d="M -2.44499 -2.44499 L 2.44499 -2.44499 L 2.44499 2.44499 L -2.44499 2.44499 z" stroke-linecap="round" />
</g>
<g transform="matrix(0 0.09 0.36 0 62.42 50.24)" id="BP0XKfaXWwArLIRCLNeMF"  >
<path style="stroke: rgb(139,52,162); stroke-width: 0; stroke-dasharray: none; stroke-linecap: butt; stroke-dashoffset: 0; stroke-linejoin: miter; stroke-miterlimit: 4; fill: rgb(0,0,0); fill-rule: nonzero; opacity: 1;" vector-effect="non-scaling-stroke"  transform=" translate(0, 0)" d="M -2.44499 -2.44499 L 2.44499 -2.44499 L 2.44499 2.44499 L -2.44499 2.44499 z" stroke-linecap="round" />
</g>
<g transform="matrix(0 0.09 0.36 0 64.66 50.24)" id="snCjlex63V5wY9nib-i1H"  >
<path style="stroke: rgb(139,52,162); stroke-width: 0; stroke-dasharray: none; stroke-linecap: butt; stroke-dashoffset: 0; stroke-linejoin: miter; stroke-miterlimit: 4; fill: rgb(0,0,0); fill-rule: nonzero; opacity: 1;" vector-effect="non-scaling-stroke"  transform=" translate(0, 0)" d="M -2.44499 -2.44499 L 2.44499 -2.44499 L 2.44499 2.44499 L -2.44499 2.44499 z" stroke-linecap="round" />
</g>
<g transform="matrix(0 0.09 0.36 0 66.92 50.24)" id="_-8zH62wt3GULXU1W3UED"  >
<path style="stroke: rgb(139,52,162); stroke-width: 0; stroke-dasharray: none; stroke-linecap: butt; stroke-dashoffset: 0; stroke-linejoin: miter; stroke-miterlimit: 4; fill: rgb(0,0,0); fill-rule: nonzero; opacity: 1;" vector-effect="non-scaling-stroke"  transform=" translate(0, 0)" d="M -2.44499 -2.44499 L 2.44499 -2.44499 L 2.44499 2.44499 L -2.44499 2.44499 z" stroke-linecap="round" />
</g>
<g transform="matrix(0 0.09 0.36 0 69.21 50.24)" id="C1m5M-yBYOOX9XHZAOOQa"  >
<path style="stroke: rgb(139,52,162); stroke-width: 0; stroke-dasharray: none; stroke-linecap: butt; stroke-dashoffset: 0; stroke-linejoin: miter; stroke-miterlimit: 4; fill: rgb(0,0,0); fill-rule: nonzero; opacity: 1;" vector-effect="non-scaling-stroke"  transform=" translate(0, 0)" d="M -2.44499 -2.44499 L 2.44499 -2.44499 L 2.44499 2.44499 L -2.44499 2.44499 z" stroke-linecap="round" />
</g>
<g transform="matrix(0 0.09 0.36 0 71.46 50.24)" id="cbodlM5hS83cqNWx7WJqF"  >
<path style="stroke: rgb(139,52,162); stroke-width: 0; stroke-dasharray: none; stroke-linecap: butt; stroke-dashoffset: 0; stroke-linejoin: miter; stroke-miterlimit: 4; fill: rgb(0,0,0); fill-rule: nonzero; opacity: 1;" vector-effect="non-scaling-stroke"  transform=" translate(0, 0)" d="M -2.44499 -2.44499 L 2.44499 -2.44499 L 2.44499 2.44499 L -2.44499 2.44499 z" stroke-linecap="round" />
</g>
<g transform="matrix(0 0.09 0.36 0 69.2 50.24)" id="WqpMZ4A5FlF8DYVByKynC"  >
<path style="stroke: rgb(139,52,162); stroke-width: 0; stroke-dasharray: none; stroke-linecap: butt; stroke-dashoffset: 0; stroke-linejoin: miter; stroke-miterlimit: 4; fill: rgb(0,0,0); fill-rule: nonzero; opacity: 1;" vector-effect="non-scaling-stroke"  transform=" translate(0, 0)" d="M -2.44499 -2.44499 L 2.44499 -2.44499 L 2.44499 2.44499 L -2.44499 2.44499 z" stroke-linecap="round" />
</g>
<g transform="matrix(0 0.09 0.36 0 71.46 50.24)" id="-KD82wV8ka84rnSNKYBFv"  >
<path style="stroke: rgb(139,52,162); stroke-width: 0; stroke-dasharray: none; stroke-linecap: butt; stroke-dashoffset: 0; stroke-linejoin: miter; stroke-miterlimit: 4; fill: rgb(0,0,0); fill-rule: nonzero; opacity: 1;" vector-effect="non-scaling-stroke"  transform=" translate(0, 0)" d="M -2.44499 -2.44499 L 2.44499 -2.44499 L 2.44499 2.44499 L -2.44499 2.44499 z" stroke-linecap="round" />
</g>
<g transform="matrix(0 0.09 0.36 0 73.7 50.24)" id="wPfKaAv4x6ebNq1WZR87N"  >
<path style="stroke: rgb(139,52,162); stroke-width: 0; stroke-dasharray: none; stroke-linecap: butt; stroke-dashoffset: 0; stroke-linejoin: miter; stroke-miterlimit: 4; fill: rgb(0,0,0); fill-rule: nonzero; opacity: 1;" vector-effect="non-scaling-stroke"  transform=" translate(0, 0)" d="M -2.44499 -2.44499 L 2.44499 -2.44499 L 2.44499 2.44499 L -2.44499 2.44499 z" stroke-linecap="round" />
</g>
<g transform="matrix(0 0.09 0.36 0 75.96 50.24)" id="0OwkjD2uikyeCcZRJiRY9"  >
<path style="stroke: rgb(139,52,162); stroke-width: 0; stroke-dasharray: none; stroke-linecap: butt; stroke-dashoffset: 0; stroke-linejoin: miter; stroke-miterlimit: 4; fill: rgb(0,0,0); fill-rule: nonzero; opacity: 1;" vector-effect="non-scaling-stroke"  transform=" translate(0, 0)" d="M -2.44499 -2.44499 L 2.44499 -2.44499 L 2.44499 2.44499 L -2.44499 2.44499 z" stroke-linecap="round" />
</g>
<g transform="matrix(0 0.09 0.36 0 78.41 50.24)" id="px7Frf-toc1KXBWl1WKSZ"  >
<path style="stroke: rgb(139,52,162); stroke-width: 0; stroke-dasharray: none; stroke-linecap: butt; stroke-dashoffset: 0; stroke-linejoin: miter; stroke-miterlimit: 4; fill: rgb(0,0,0); fill-rule: nonzero; opacity: 1;" vector-effect="non-scaling-stroke"  transform=" translate(0, 0)" d="M -2.44499 -2.44499 L 2.44499 -2.44499 L 2.44499 2.44499 L -2.44499 2.44499 z" stroke-linecap="round" />
</g>
<g transform="matrix(0 0.09 0.36 0 80.66 50.24)" id="Z9nK4vHKWUulFJJS4pzhH"  >
<path style="stroke: rgb(139,52,162); stroke-width: 0; stroke-dasharray: none; stroke-linecap: butt; stroke-dashoffset: 0; stroke-linejoin: miter; stroke-miterlimit: 4; fill: rgb(0,0,0); fill-rule: nonzero; opacity: 1;" vector-effect="non-scaling-stroke"  transform=" translate(0, 0)" d="M -2.44499 -2.44499 L 2.44499 -2.44499 L 2.44499 2.44499 L -2.44499 2.44499 z" stroke-linecap="round" />
</g>
<g transform="matrix(0 0.09 0.36 0 78.4 50.24)" id="aMrfa3blQ3M5pPvUPBpa4"  >
<path style="stroke: rgb(139,52,162); stroke-width: 0; stroke-dasharray: none; stroke-linecap: butt; stroke-dashoffset: 0; stroke-linejoin: miter; stroke-miterlimit: 4; fill: rgb(0,0,0); fill-rule: nonzero; opacity: 1;" vector-effect="non-scaling-stroke"  transform=" translate(0, 0)" d="M -2.44499 -2.44499 L 2.44499 -2.44499 L 2.44499 2.44499 L -2.44499 2.44499 z" stroke-linecap="round" />
</g>
<g transform="matrix(0 0.09 0.36 0 80.66 50.24)" id="BPpswaxSVOjKJ-SKs8HTy"  >
<path style="stroke: rgb(139,52,162); stroke-width: 0; stroke-dasharray: none; stroke-linecap: butt; stroke-dashoffset: 0; stroke-linejoin: miter; stroke-miterlimit: 4; fill: rgb(0,0,0); fill-rule: nonzero; opacity: 1;" vector-effect="non-scaling-stroke"  transform=" translate(0, 0)" d="M -2.44499 -2.44499 L 2.44499 -2.44499 L 2.44499 2.44499 L -2.44499 2.44499 z" stroke-linecap="round" />
</g>
<g transform="matrix(0 0.09 0.36 0 82.9 50.24)" id="FJM4eBF8RpdFSO5jTPay_"  >
<path style="stroke: rgb(139,52,162); stroke-width: 0; stroke-dasharray: none; stroke-linecap: butt; stroke-dashoffset: 0; stroke-linejoin: miter; stroke-miterlimit: 4; fill: rgb(0,0,0); fill-rule: nonzero; opacity: 1;" vector-effect="non-scaling-stroke"  transform=" translate(0, 0)" d="M -2.44499 -2.44499 L 2.44499 -2.44499 L 2.44499 2.44499 L -2.44499 2.44499 z" stroke-linecap="round" />
</g>
<g transform="matrix(0 0.09 0.36 0 85.16 50.24)" id="3GtenohaLQ1r3IIpTw2dt"  >
<path style="stroke: rgb(139,52,162); stroke-width: 0; stroke-dasharray: none; stroke-linecap: butt; stroke-dashoffset: 0; stroke-linejoin: miter; stroke-miterlimit: 4; fill: rgb(0,0,0); fill-rule: nonzero; opacity: 1;" vector-effect="non-scaling-stroke"  transform=" translate(0, 0)" d="M -2.44499 -2.44499 L 2.44499 -2.44499 L 2.44499 2.44499 L -2.44499 2.44499 z" stroke-linecap="round" />
</g>
<g transform="matrix(0 0.09 0.36 0 86.84 50.24)" id="WXhVyQ8aSwdgHwpMTdMFF"  >
<path style="stroke: rgb(139,52,162); stroke-width: 0; stroke-dasharray: none; stroke-linecap: butt; stroke-dashoffset: 0; stroke-linejoin: miter; stroke-miterlimit: 4; fill: rgb(0,0,0); fill-rule: nonzero; opacity: 1;" vector-effect="non-scaling-stroke"  transform=" translate(0, 0)" d="M -2.44499 -2.44499 L 2.44499 -2.44499 L 2.44499 2.44499 L -2.44499 2.44499 z" stroke-linecap="round" />
</g>
<g transform="matrix(0 0.09 0.36 0 89.1 50.24)" id="bqoUfAdDb6GDe6A6STA5T"  >
<path style="stroke: rgb(139,52,162); stroke-width: 0; stroke-dasharray: none; stroke-linecap: butt; stroke-dashoffset: 0; stroke-linejoin: miter; stroke-miterlimit: 4; fill: rgb(0,0,0); fill-rule: nonzero; opacity: 1;" vector-effect="non-scaling-stroke"  transform=" translate(0, 0)" d="M -2.44499 -2.44499 L 2.44499 -2.44499 L 2.44499 2.44499 L -2.44499 2.44499 z" stroke-linecap="round" />
</g>
<g transform="matrix(0 0.09 0.36 0 60.96 60.24)" id="YPAf-0KK-y2A5mExZSUER"  >
<path style="stroke: rgb(139,52,162); stroke-width: 0; stroke-dasharray: none; stroke-linecap: butt; stroke-dashoffset: 0; stroke-linejoin: miter; stroke-miterlimit: 4; fill: rgb(0,0,0); fill-rule: nonzero; opacity: 1;" vector-effect="non-scaling-stroke"  transform=" translate(0, 0)" d="M -2.44499 -2.44499 L 2.44499 -2.44499 L 2.44499 2.44499 L -2.44499 2.44499 z" stroke-linecap="round" />
</g>
<g transform="matrix(0 -0.45 0.09 0 0.26 1.81)" id="B-5NxjBxTRDiEbLyIshng"  >
<path style="stroke: rgb(139,52,162); stroke-width: 0; stroke-dasharray: none; stroke-linecap: butt; stroke-dashoffset: 0; stroke-linejoin: miter; stroke-miterlimit: 4; fill: rgb(0,0,0); fill-rule: nonzero; opacity: 1;" vector-effect="non-scaling-stroke"  transform=" translate(0, 0)" d="M -2.44499 -2.44499 L 2.44499 -2.44499 L 2.44499 2.44499 L -2.44499 2.44499 z" stroke-linecap="round" />
</g>
<g transform="matrix(0 -0.45 0.09 0 0.24 4.55)" id="fiNjJ4DoH4b03DEkssGCG"  >
<path style="stroke: rgb(139,52,162); stroke-width: 0; stroke-dasharray: none; stroke-linecap: butt; stroke-dashoffset: 0; stroke-linejoin: miter; stroke-miterlimit: 4; fill: rgb(0,0,0); fill-rule: nonzero; opacity: 1;" vector-effect="non-scaling-stroke"  transform=" translate(0, 0)" d="M -2.44499 -2.44499 L 2.44499 -2.44499 L 2.44499 2.44499 L -2.44499 2.44499 z" stroke-linecap="round" />
</g>
<g transform="matrix(0 -0.45 0.09 0 0.24 7.49)" id="CLJwdKtR4sDuwfd0id86k"  >
<path style="stroke: rgb(139,52,162); stroke-width: 0; stroke-dasharray: none; stroke-linecap: butt; stroke-dashoffset: 0; stroke-linejoin: miter; stroke-miterlimit: 4; fill: rgb(0,0,0); fill-rule: nonzero; opacity: 1;" vector-effect="non-scaling-stroke"  transform=" translate(0, 0)" d="M -2.44499 -2.44499 L 2.44499 -2.44499 L 2.44499 2.44499 L -2.44499 2.44499 z" stroke-linecap="round" />
</g>
<g transform="matrix(0 -0.45 0.09 0 0.22 10.22)" id="-wCiVhZFpQksSGuqASX57"  >
<path style="stroke: rgb(139,52,162); stroke-width: 0; stroke-dasharray: none; stroke-linecap: butt; stroke-dashoffset: 0; stroke-linejoin: miter; stroke-miterlimit: 4; fill: rgb(0,0,0); fill-rule: nonzero; opacity: 1;" vector-effect="non-scaling-stroke"  transform=" translate(0, 0)" d="M -2.44499 -2.44499 L 2.44499 -2.44499 L 2.44499 2.44499 L -2.44499 2.44499 z" stroke-linecap="round" />
</g>
<g transform="matrix(0 -0.45 0.09 0 0.22 13.06)" id="WGcEUHE80OsMZZpBPjWrZ"  >
<path style="stroke: rgb(139,52,162); stroke-width: 0; stroke-dasharray: none; stroke-linecap: butt; stroke-dashoffset: 0; stroke-linejoin: miter; stroke-miterlimit: 4; fill: rgb(0,0,0); fill-rule: nonzero; opacity: 1;" vector-effect="non-scaling-stroke"  transform=" translate(0, 0)" d="M -2.44499 -2.44499 L 2.44499 -2.44499 L 2.44499 2.44499 L -2.44499 2.44499 z" stroke-linecap="round" />
</g>
<g transform="matrix(0 -0.45 0.09 0 0.2 15.79)" id="4kL2lS2pdgpOMSXN30bFU"  >
<path style="stroke: rgb(139,52,162); stroke-width: 0; stroke-dasharray: none; stroke-linecap: butt; stroke-dashoffset: 0; stroke-linejoin: miter; stroke-miterlimit: 4; fill: rgb(0,0,0); fill-rule: nonzero; opacity: 1;" vector-effect="non-scaling-stroke"  transform=" translate(0, 0)" d="M -2.44499 -2.44499 L 2.44499 -2.44499 L 2.44499 2.44499 L -2.44499 2.44499 z" stroke-linecap="round" />
</g>
<g transform="matrix(0 -0.45 0.09 0 0.2 18.73)" id="SfMxM0FHjjmuiRdaJ_kFW"  >
<path style="stroke: rgb(139,52,162); stroke-width: 0; stroke-dasharray: none; stroke-linecap: butt; stroke-dashoffset: 0; stroke-linejoin: miter; stroke-miterlimit: 4; fill: rgb(0,0,0); fill-rule: nonzero; opacity: 1;" vector-effect="non-scaling-stroke"  transform=" translate(0, 0)" d="M -2.44499 -2.44499 L 2.44499 -2.44499 L 2.44499 2.44499 L -2.44499 2.44499 z" stroke-linecap="round" />
</g>
<g transform="matrix(0 -0.45 0.09 0 39.76 1.82)" id="b_lv_bgY7503y-sn6R9d5"  >
<path style="stroke: rgb(139,52,162); stroke-width: 0; stroke-dasharray: none; stroke-linecap: butt; stroke-dashoffset: 0; stroke-linejoin: miter; stroke-miterlimit: 4; fill: rgb(0,0,0); fill-rule: nonzero; opacity: 1;" vector-effect="non-scaling-stroke"  transform=" translate(0, 0)" d="M -2.44499 -2.44499 L 2.44499 -2.44499 L 2.44499 2.44499 L -2.44499 2.44499 z" stroke-linecap="round" />
</g>
<g transform="matrix(0 -0.45 0.09 0 39.74 4.55)" id="42IQImt5ttn4Updonz0-e"  >
<path style="stroke: rgb(139,52,162); stroke-width: 0; stroke-dasharray: none; stroke-linecap: butt; stroke-dashoffset: 0; stroke-linejoin: miter; stroke-miterlimit: 4; fill: rgb(0,0,0); fill-rule: nonzero; opacity: 1;" vector-effect="non-scaling-stroke"  transform=" translate(0, 0)" d="M -2.44499 -2.44499 L 2.44499 -2.44499 L 2.44499 2.44499 L -2.44499 2.44499 z" stroke-linecap="round" />
</g>
<g transform="matrix(0 -0.45 0.09 0 39.74 7.49)" id="C5aQejySx6OpR_DKkA2kk"  >
<path style="stroke: rgb(139,52,162); stroke-width: 0; stroke-dasharray: none; stroke-linecap: butt; stroke-dashoffset: 0; stroke-linejoin: miter; stroke-miterlimit: 4; fill: rgb(0,0,0); fill-rule: nonzero; opacity: 1;" vector-effect="non-scaling-stroke"  transform=" translate(0, 0)" d="M -2.44499 -2.44499 L 2.44499 -2.44499 L 2.44499 2.44499 L -2.44499 2.44499 z" stroke-linecap="round" />
</g>
<g transform="matrix(0 -0.45 0.09 0 39.72 10.22)" id="U0siaJzd29VPQ9MJsGyHx"  >
<path style="stroke: rgb(139,52,162); stroke-width: 0; stroke-dasharray: none; stroke-linecap: butt; stroke-dashoffset: 0; stroke-linejoin: miter; stroke-miterlimit: 4; fill: rgb(0,0,0); fill-rule: nonzero; opacity: 1;" vector-effect="non-scaling-stroke"  transform=" translate(0, 0)" d="M -2.44499 -2.44499 L 2.44499 -2.44499 L 2.44499 2.44499 L -2.44499 2.44499 z" stroke-linecap="round" />
</g>
<g transform="matrix(0 -0.45 0.09 0 39.72 13.07)" id="YkRx-nD8HyFCVYYHhWKSG"  >
<path style="stroke: rgb(139,52,162); stroke-width: 0; stroke-dasharray: none; stroke-linecap: butt; stroke-dashoffset: 0; stroke-linejoin: miter; stroke-miterlimit: 4; fill: rgb(0,0,0); fill-rule: nonzero; opacity: 1;" vector-effect="non-scaling-stroke"  transform=" translate(0, 0)" d="M -2.44499 -2.44499 L 2.44499 -2.44499 L 2.44499 2.44499 L -2.44499 2.44499 z" stroke-linecap="round" />
</g>
<g transform="matrix(0 -0.45 0.09 0 39.7 15.8)" id="VVIr_Kp0F5EdsD0--WkGJ"  >
<path style="stroke: rgb(139,52,162); stroke-width: 0; stroke-dasharray: none; stroke-linecap: butt; stroke-dashoffset: 0; stroke-linejoin: miter; stroke-miterlimit: 4; fill: rgb(0,0,0); fill-rule: nonzero; opacity: 1;" vector-effect="non-scaling-stroke"  transform=" translate(0, 0)" d="M -2.44499 -2.44499 L 2.44499 -2.44499 L 2.44499 2.44499 L -2.44499 2.44499 z" stroke-linecap="round" />
</g>
<g transform="matrix(0 -0.45 0.09 0 39.7 18.8)" id="7Sv7nBg2fsZdLGWouJejb"  >
<path style="stroke: rgb(139,52,162); stroke-width: 0; stroke-dasharray: none; stroke-linecap: butt; stroke-dashoffset: 0; stroke-linejoin: miter; stroke-miterlimit: 4; fill: rgb(0,0,0); fill-rule: nonzero; opacity: 1;" vector-effect="non-scaling-stroke"  transform=" translate(0, 0)" d="M -2.44499 -2.44499 L 2.44499 -2.44499 L 2.44499 2.44499 L -2.44499 2.44499 z" stroke-linecap="round" />
</g>
</svg>