<?xml version="1.0" encoding="UTF-8" standalone="no" ?>
<!DOCTYPE svg PUBLIC "-//W3C//DTD SVG 1.1//EN" "http://www.w3.org/Graphics/SVG/1.1/DTD/svg11.dtd">
<svg xmlns="http://www.w3.org/2000/svg" xmlns:xlink="http://www.w3.org/1999/xlink" version="1.1" width="40" height="20" viewBox="0 0 40 20" xml:space="preserve">
<desc>Created with Fabric.js 4.6.0</desc>
<defs>
</defs>
<g transform="matrix(4.49 0 0 3.43 19.65 10.03)" id="96NAcnrz7GuuUwYq2Z-D2"  >
<path style="stroke: rgb(0,0,0); stroke-width: 0.5; stroke-dasharray: none; stroke-linecap: butt; stroke-dashoffset: 0; stroke-linejoin: miter; stroke-miterlimit: 4; fill: none; fill-rule: nonzero; opacity: 1;" vector-effect="non-scaling-stroke"  transform=" translate(0, 0)" d="M -2.84091 -2.84091 L 2.84091 -2.84091 L 2.84091 2.84091 L -2.84091 2.84091 z" stroke-linecap="round" />
</g>
<g transform="matrix(0.11 0 0 4.06 39.7 10.03)" id="lKdIPQKHIjGOF8W-_gANH"  >
<path style="stroke: rgb(139,52,162); stroke-width: 0; stroke-dasharray: none; stroke-linecap: butt; stroke-dashoffset: 0; stroke-linejoin: miter; stroke-miterlimit: 4; fill: rgb(0,0,0); fill-rule: nonzero; opacity: 1;" vector-effect="non-scaling-stroke"  transform=" translate(0, 0)" d="M -2.44499 -2.44499 L 2.44499 -2.44499 L 2.44499 2.44499 L -2.44499 2.44499 z" stroke-linecap="round" />
</g>
<g transform="matrix(0 0.09 -1 0 37.52 19.76)" id="5CCU0tkhn5uCPNuC973N0"  >
<path style="stroke: rgb(139,52,162); stroke-width: 0; stroke-dasharray: none; stroke-linecap: butt; stroke-dashoffset: 0; stroke-linejoin: miter; stroke-miterlimit: 4; fill: rgb(0,0,0); fill-rule: nonzero; opacity: 1;" vector-effect="non-scaling-stroke"  transform=" translate(0, 0)" d="M -2.44499 -2.44499 L 2.44499 -2.44499 L 2.44499 2.44499 L -2.44499 2.44499 z" stroke-linecap="round" />
</g>
<g transform="matrix(0 0.09 -1 0 37.52 0.24)" id="aV5kzypfVc_LNOIMi44Dg"  >
<path style="stroke: rgb(139,52,162); stroke-width: 0; stroke-dasharray: none; stroke-linecap: butt; stroke-dashoffset: 0; stroke-linejoin: miter; stroke-miterlimit: 4; fill: rgb(0,0,0); fill-rule: nonzero; opacity: 1;" vector-effect="non-scaling-stroke"  transform=" translate(0, 0)" d="M -2.44499 -2.44499 L 2.44499 -2.44499 L 2.44499 2.44499 L -2.44499 2.44499 z" stroke-linecap="round" />
</g>
<g transform="matrix(-0.11 0 0 4.06 0.3 10.03)" id="NVe-Cj3ukKkw7zIRvF0sa"  >
<path style="stroke: rgb(139,52,162); stroke-width: 0; stroke-dasharray: none; stroke-linecap: butt; stroke-dashoffset: 0; stroke-linejoin: miter; stroke-miterlimit: 4; fill: rgb(0,0,0); fill-rule: nonzero; opacity: 1;" vector-effect="non-scaling-stroke"  transform=" translate(0, 0)" d="M -2.44499 -2.44499 L 2.44499 -2.44499 L 2.44499 2.44499 L -2.44499 2.44499 z" stroke-linecap="round" />
</g>
<g transform="matrix(0 0.09 1 0 2.52 19.76)" id="qs3XggaQyStQSqze1592M"  >
<path style="stroke: rgb(139,52,162); stroke-width: 0; stroke-dasharray: none; stroke-linecap: butt; stroke-dashoffset: 0; stroke-linejoin: miter; stroke-miterlimit: 4; fill: rgb(0,0,0); fill-rule: nonzero; opacity: 1;" vector-effect="non-scaling-stroke"  transform=" translate(0, 0)" d="M -2.44499 -2.44499 L 2.44499 -2.44499 L 2.44499 2.44499 L -2.44499 2.44499 z" stroke-linecap="round" />
</g>
<g transform="matrix(0 0.09 1 0 2.52 0.24)" id="0UI9G6mzA2oIL9GvMP6pf"  >
<path style="stroke: rgb(139,52,162); stroke-width: 0; stroke-dasharray: none; stroke-linecap: butt; stroke-dashoffset: 0; stroke-linejoin: miter; stroke-miterlimit: 4; fill: rgb(0,0,0); fill-rule: nonzero; opacity: 1;" vector-effect="non-scaling-stroke"  transform=" translate(0, 0)" d="M -2.44499 -2.44499 L 2.44499 -2.44499 L 2.44499 2.44499 L -2.44499 2.44499 z" stroke-linecap="round" />
</g>
</svg>