<?xml version="1.0" encoding="UTF-8" standalone="no" ?>
<!DOCTYPE svg PUBLIC "-//W3C//DTD SVG 1.1//EN" "http://www.w3.org/Graphics/SVG/1.1/DTD/svg11.dtd">
<svg xmlns="http://www.w3.org/2000/svg" xmlns:xlink="http://www.w3.org/1999/xlink" version="1.1" width="40" height="30" viewBox="0 0 40 30" xml:space="preserve">
<desc>Created with Fabric.js 4.6.0</desc>
<defs>
</defs>
<g transform="matrix(0 0.1 -0.88 0 10.32 26.52)" id="rtuyLlzMzHeXcqo1XDg5E"  >
<path style="stroke: rgb(0,0,0); stroke-width: 0.5; stroke-dasharray: none; stroke-linecap: butt; stroke-dashoffset: 0; stroke-linejoin: miter; stroke-miterlimit: 4; fill: none; fill-rule: nonzero; opacity: 1;" vector-effect="non-scaling-stroke"  transform=" translate(0, 0)" d="M -22.775 -0.00005 L 22.775 -0.00005 L 22.775 0.00005 L -22.775 0.00005 z" stroke-linecap="round" />
</g>
<g transform="matrix(0 0.1 -0.88 0 29.45 26.58)" id="fDe7PWYj4-jwFOfE--7SU"  >
<path style="stroke: rgb(0,0,0); stroke-width: 0.5; stroke-dasharray: none; stroke-linecap: butt; stroke-dashoffset: 0; stroke-linejoin: miter; stroke-miterlimit: 4; fill: none; fill-rule: nonzero; opacity: 1;" vector-effect="non-scaling-stroke"  transform=" translate(0, 0)" d="M -22.775 -0.00005 L 22.775 -0.00005 L 22.775 0.00005 L -22.775 0.00005 z" stroke-linecap="round" />
</g>
<g transform="matrix(4.49 0 0 1.48 19.89 26.14)" id="UowMXpxyILWXvDzvSWu-b"  >
<path style="stroke: rgb(0,0,0); stroke-width: 0; stroke-dasharray: none; stroke-linecap: butt; stroke-dashoffset: 0; stroke-linejoin: miter; stroke-miterlimit: 4; fill: none; fill-rule: nonzero; opacity: 1;" vector-effect="non-scaling-stroke"  transform=" translate(0, 0)" d="M -2.07824 -2.07824 L 2.07824 -2.07824 L 2.07824 2.07824 L -2.07824 2.07824 z" stroke-linecap="round" />
</g>
<g transform="matrix(0 0.57 -0.88 0 0.27 13.35)" id="NERr3R3TkklDyYCS7c8gx"  >
<path style="stroke: rgb(0,0,0); stroke-width: 0.5; stroke-dasharray: none; stroke-linecap: butt; stroke-dashoffset: 0; stroke-linejoin: miter; stroke-miterlimit: 4; fill: none; fill-rule: nonzero; opacity: 1;" vector-effect="non-scaling-stroke"  transform=" translate(0, 0)" d="M -22.775 -0.00005 L 22.775 -0.00005 L 22.775 0.00005 L -22.775 0.00005 z" stroke-linecap="round" />
</g>
<g transform="matrix(0 0.58 -0.88 0 39.79 13.37)" id="8p5y28PdfCeXmQdVzq9gy"  >
<path style="stroke: rgb(0,0,0); stroke-width: 0.5; stroke-dasharray: none; stroke-linecap: butt; stroke-dashoffset: 0; stroke-linejoin: miter; stroke-miterlimit: 4; fill: none; fill-rule: nonzero; opacity: 1;" vector-effect="non-scaling-stroke"  transform=" translate(0, 0)" d="M -22.775 -0.00005 L 22.775 -0.00005 L 22.775 0.00005 L -22.775 0.00005 z" stroke-linecap="round" />
</g>
<g transform="matrix(0.86 0 0 1.31 19.97 0.23)" id="DggPCMuK1zK5BbEEi8BhJ"  >
<path style="stroke: rgb(0,0,0); stroke-width: 0.5; stroke-dasharray: none; stroke-linecap: butt; stroke-dashoffset: 0; stroke-linejoin: miter; stroke-miterlimit: 4; fill: none; fill-rule: nonzero; opacity: 1;" vector-effect="non-scaling-stroke"  transform=" translate(0, 0)" d="M -22.775 -0.00005 L 22.775 -0.00005 L 22.775 0.00005 L -22.775 0.00005 z" stroke-linecap="round" />
</g>
<g transform="matrix(0.22 0 0 1.31 5.25 26.51)" id="3HTYJiSHVVnfGHP-XLhLI"  >
<path style="stroke: rgb(0,0,0); stroke-width: 0.5; stroke-dasharray: none; stroke-linecap: butt; stroke-dashoffset: 0; stroke-linejoin: miter; stroke-miterlimit: 4; fill: none; fill-rule: nonzero; opacity: 1;" vector-effect="non-scaling-stroke"  transform=" translate(0, 0)" d="M -22.775 -0.00005 L 22.775 -0.00005 L 22.775 0.00005 L -22.775 0.00005 z" stroke-linecap="round" />
</g>
<g transform="matrix(0.21 0 0 1.26 34.8 26.51)" id="gznAmQxsZFEPbDIFNXXWX"  >
<path style="stroke: rgb(0,0,0); stroke-width: 0.5; stroke-dasharray: none; stroke-linecap: butt; stroke-dashoffset: 0; stroke-linejoin: miter; stroke-miterlimit: 4; fill: none; fill-rule: nonzero; opacity: 1;" vector-effect="non-scaling-stroke"  transform=" translate(0, 0)" d="M -22.775 -0.00005 L 22.775 -0.00005 L 22.775 0.00005 L -22.775 0.00005 z" stroke-linecap="round" />
</g>
</svg>