<?xml version="1.0" encoding="UTF-8" standalone="no" ?>
<!DOCTYPE svg PUBLIC "-//W3C//DTD SVG 1.1//EN" "http://www.w3.org/Graphics/SVG/1.1/DTD/svg11.dtd">
<svg xmlns="http://www.w3.org/2000/svg" xmlns:xlink="http://www.w3.org/1999/xlink" version="1.1" width="40" height="20" viewBox="0 0 40 20" xml:space="preserve">
<desc>Created with Fabric.js 4.6.0</desc>
<defs>
</defs>
<g transform="matrix(1 0 0 1 34.98 35.41)" id="og8kf5g6dCUrfA1Fr3kbQ"  >
<path style="stroke: rgb(140,177,109); stroke-width: 0; stroke-dasharray: none; stroke-linecap: butt; stroke-dashoffset: 0; stroke-linejoin: miter; stroke-miterlimit: 4; fill: rgb(0,0,0); fill-rule: nonzero; opacity: 1;" vector-effect="non-scaling-stroke"  transform=" translate(-25, -0.26)" d="M 0 0 L 50 0 L 50 0.52083 L 0 0.52083 z" stroke-linecap="round" />
</g>
<g transform="matrix(0.05 -0.05 0.51 0.53 35.98 35.37)" id="YiBzF3Q1vavqUYtnPQtMA"  >
<path style="stroke: rgb(31,165,116); stroke-width: 0; stroke-dasharray: none; stroke-linecap: butt; stroke-dashoffset: 0; stroke-linejoin: miter; stroke-miterlimit: 4; fill: rgb(0,0,0); fill-rule: nonzero; opacity: 1;" vector-effect="non-scaling-stroke"  transform=" translate(0, 0)" d="M -4.73485 -4.73485 L 4.73485 -4.73485 L 4.73485 4.73485 L -4.73485 4.73485 z" stroke-linecap="round" />
</g>
<g transform="matrix(1 0 0 1 17.01 28.48)" id="HakdLbf0_QNbS4sfoQuqc"  >
<path style="stroke: rgb(0,0,0); stroke-width: 1; stroke-dasharray: none; stroke-linecap: butt; stroke-dashoffset: 0; stroke-linejoin: miter; stroke-miterlimit: 4; fill: rgb(255,255,255); fill-opacity: 0; fill-rule: nonzero; opacity: 1;" vector-effect="non-scaling-stroke"  transform=" translate(0, 0)" d="M 0 0" stroke-linecap="round" />
</g>
<g transform="matrix(0.05 0.05 -0.52 0.52 35.98 35.34)" id="pLkP28NvSCueAEbLLT9gd"  >
<path style="stroke: rgb(31,165,116); stroke-width: 0; stroke-dasharray: none; stroke-linecap: butt; stroke-dashoffset: 0; stroke-linejoin: miter; stroke-miterlimit: 4; fill: rgb(0,0,0); fill-rule: nonzero; opacity: 1;" vector-effect="non-scaling-stroke"  transform=" translate(0, 0)" d="M -4.73485 -4.73485 L 4.73485 -4.73485 L 4.73485 4.73485 L -4.73485 4.73485 z" stroke-linecap="round" />
</g>
<g transform="matrix(1 0 0 1 44.98 45.41)" id="13VDtTO5mU161sjt6U73Z"  >
<path style="stroke: rgb(140,177,109); stroke-width: 0; stroke-dasharray: none; stroke-linecap: butt; stroke-dashoffset: 0; stroke-linejoin: miter; stroke-miterlimit: 4; fill: rgb(0,0,0); fill-rule: nonzero; opacity: 1;" vector-effect="non-scaling-stroke"  transform=" translate(-25, -0.26)" d="M 0 0 L 50 0 L 50 0.52083 L 0 0.52083 z" stroke-linecap="round" />
</g>
<g transform="matrix(0.05 -0.05 0.51 0.53 45.98 45.37)" id="EzNAMpTVGQhAklsN0JoZo"  >
<path style="stroke: rgb(31,165,116); stroke-width: 0; stroke-dasharray: none; stroke-linecap: butt; stroke-dashoffset: 0; stroke-linejoin: miter; stroke-miterlimit: 4; fill: rgb(0,0,0); fill-rule: nonzero; opacity: 1;" vector-effect="non-scaling-stroke"  transform=" translate(0, 0)" d="M -4.73485 -4.73485 L 4.73485 -4.73485 L 4.73485 4.73485 L -4.73485 4.73485 z" stroke-linecap="round" />
</g>
<g transform="matrix(1 0 0 1 27.01 38.48)" id="TFGw_YeYB08gRMq1pnwSg"  >
<path style="stroke: rgb(0,0,0); stroke-width: 1; stroke-dasharray: none; stroke-linecap: butt; stroke-dashoffset: 0; stroke-linejoin: miter; stroke-miterlimit: 4; fill: rgb(255,255,255); fill-opacity: 0; fill-rule: nonzero; opacity: 1;" vector-effect="non-scaling-stroke"  transform=" translate(0, 0)" d="M 0 0" stroke-linecap="round" />
</g>
<g transform="matrix(0.05 0.05 -0.52 0.52 45.98 45.34)" id="kmSMFBfO4wfDGLsRULv0W"  >
<path style="stroke: rgb(31,165,116); stroke-width: 0; stroke-dasharray: none; stroke-linecap: butt; stroke-dashoffset: 0; stroke-linejoin: miter; stroke-miterlimit: 4; fill: rgb(0,0,0); fill-rule: nonzero; opacity: 1;" vector-effect="non-scaling-stroke"  transform=" translate(0, 0)" d="M -4.73485 -4.73485 L 4.73485 -4.73485 L 4.73485 4.73485 L -4.73485 4.73485 z" stroke-linecap="round" />
</g>
<g transform="matrix(8.17 0 0 0.06 20 9.56)" id="SHnLX58fbDC6Sp9HBiLJC"  >
<path style="stroke: rgb(66,152,119); stroke-width: 0; stroke-dasharray: none; stroke-linecap: butt; stroke-dashoffset: 0; stroke-linejoin: miter; stroke-miterlimit: 4; fill: rgb(0,0,0); fill-rule: nonzero; opacity: 1;" vector-effect="non-scaling-stroke"  transform=" translate(0, 0)" d="M -2.44499 -2.44499 L 2.44499 -2.44499 L 2.44499 2.44499 L -2.44499 2.44499 z" stroke-linecap="round" />
</g>
<g transform="matrix(8.17 0 0 0.06 60 49.56)" id="eZeD1iDS_8ZzlTU_Feja4"  >
<path style="stroke: rgb(66,152,119); stroke-width: 0; stroke-dasharray: none; stroke-linecap: butt; stroke-dashoffset: 0; stroke-linejoin: miter; stroke-miterlimit: 4; fill: rgb(0,0,0); fill-rule: nonzero; opacity: 1;" vector-effect="non-scaling-stroke"  transform=" translate(0, 0)" d="M -2.44499 -2.44499 L 2.44499 -2.44499 L 2.44499 2.44499 L -2.44499 2.44499 z" stroke-linecap="round" />
</g>
<g transform="matrix(8.17 0 0 0.06 70 59.56)" id="2X66QZ74209P-xazFAKpt"  >
<path style="stroke: rgb(66,152,119); stroke-width: 0; stroke-dasharray: none; stroke-linecap: butt; stroke-dashoffset: 0; stroke-linejoin: miter; stroke-miterlimit: 4; fill: rgb(0,0,0); fill-rule: nonzero; opacity: 1;" vector-effect="non-scaling-stroke"  transform=" translate(0, 0)" d="M -2.44499 -2.44499 L 2.44499 -2.44499 L 2.44499 2.44499 L -2.44499 2.44499 z" stroke-linecap="round" />
</g>
<g transform="matrix(1.15 -0.56 0.02 0.04 20.88 9.56)" id="xoUsNFic-PBFkG4FhHCJY"  >
<path style="stroke: rgb(66,152,119); stroke-width: 0; stroke-dasharray: none; stroke-linecap: butt; stroke-dashoffset: 0; stroke-linejoin: miter; stroke-miterlimit: 4; fill: rgb(0,0,0); fill-rule: nonzero; opacity: 1;" vector-effect="non-scaling-stroke"  transform=" translate(0, 0)" d="M -2.44499 -2.44499 L 2.44499 -2.44499 L 2.44499 2.44499 L -2.44499 2.44499 z" stroke-linecap="round" />
</g>
<g transform="matrix(1.14 0.58 -0.02 0.04 20.88 9.56)" id="S6_Rb9EJ6whrkINriZTBZ"  >
<path style="stroke: rgb(66,152,119); stroke-width: 0; stroke-dasharray: none; stroke-linecap: butt; stroke-dashoffset: 0; stroke-linejoin: miter; stroke-miterlimit: 4; fill: rgb(0,0,0); fill-rule: nonzero; opacity: 1;" vector-effect="non-scaling-stroke"  transform=" translate(0, 0)" d="M -2.44499 -2.44499 L 2.44499 -2.44499 L 2.44499 2.44499 L -2.44499 2.44499 z" stroke-linecap="round" />
</g>
</svg>