<?xml version="1.0" encoding="UTF-8" standalone="no" ?>
<!DOCTYPE svg PUBLIC "-//W3C//DTD SVG 1.1//EN" "http://www.w3.org/Graphics/SVG/1.1/DTD/svg11.dtd">
<svg xmlns="http://www.w3.org/2000/svg" xmlns:xlink="http://www.w3.org/1999/xlink" version="1.1" width="40" height="30" viewBox="0 0 40 30" xml:space="preserve">
<desc>Created with Fabric.js 4.6.0</desc>
<defs>
</defs>
<g transform="matrix(4.49 0 0 1.62 19.89 28.5)" id="UowMXpxyILWXvDzvSWu-b"  >
<path style="stroke: rgb(0,0,0); stroke-width: 0; stroke-dasharray: none; stroke-linecap: butt; stroke-dashoffset: 0; stroke-linejoin: miter; stroke-miterlimit: 4; fill: none; fill-rule: nonzero; opacity: 1;" vector-effect="non-scaling-stroke"  transform=" translate(0, 0)" d="M -2.07824 -2.07824 L 2.07824 -2.07824 L 2.07824 2.07824 L -2.07824 2.07824 z" stroke-linecap="round" />
</g>
<g transform="matrix(0 0.63 -0.88 0 0.27 14.56)" id="NERr3R3TkklDyYCS7c8gx"  >
<path style="stroke: rgb(0,0,0); stroke-width: 0.5; stroke-dasharray: none; stroke-linecap: butt; stroke-dashoffset: 0; stroke-linejoin: miter; stroke-miterlimit: 4; fill: none; fill-rule: nonzero; opacity: 1;" vector-effect="non-scaling-stroke"  transform=" translate(0, 0)" d="M -22.775 -0.00005 L 22.775 -0.00005 L 22.775 0.00005 L -22.775 0.00005 z" stroke-linecap="round" />
</g>
<g transform="matrix(0 0.63 -0.88 0 39.79 14.58)" id="8p5y28PdfCeXmQdVzq9gy"  >
<path style="stroke: rgb(0,0,0); stroke-width: 0.5; stroke-dasharray: none; stroke-linecap: butt; stroke-dashoffset: 0; stroke-linejoin: miter; stroke-miterlimit: 4; fill: none; fill-rule: nonzero; opacity: 1;" vector-effect="non-scaling-stroke"  transform=" translate(0, 0)" d="M -22.775 -0.00005 L 22.775 -0.00005 L 22.775 0.00005 L -22.775 0.00005 z" stroke-linecap="round" />
</g>
<g transform="matrix(0.86 0 0 1.42 19.97 0.25)" id="DggPCMuK1zK5BbEEi8BhJ"  >
<path style="stroke: rgb(0,0,0); stroke-width: 0.5; stroke-dasharray: none; stroke-linecap: butt; stroke-dashoffset: 0; stroke-linejoin: miter; stroke-miterlimit: 4; fill: none; fill-rule: nonzero; opacity: 1;" vector-effect="non-scaling-stroke"  transform=" translate(0, 0)" d="M -22.775 -0.00005 L 22.775 -0.00005 L 22.775 0.00005 L -22.775 0.00005 z" stroke-linecap="round" />
</g>
<g transform="matrix(0.25 0 0 1.62 5.96 28.9)" id="3HTYJiSHVVnfGHP-XLhLI"  >
<path style="stroke: rgb(0,0,0); stroke-width: 0.5; stroke-dasharray: none; stroke-linecap: butt; stroke-dashoffset: 0; stroke-linejoin: miter; stroke-miterlimit: 4; fill: none; fill-rule: nonzero; opacity: 1;" vector-effect="non-scaling-stroke"  transform=" translate(0, 0)" d="M -22.775 -0.00005 L 22.775 -0.00005 L 22.775 0.00005 L -22.775 0.00005 z" stroke-linecap="round" />
</g>
<g transform="matrix(0.24 0 0 1.57 34.1 28.9)" id="gznAmQxsZFEPbDIFNXXWX"  >
<path style="stroke: rgb(0,0,0); stroke-width: 0.5; stroke-dasharray: none; stroke-linecap: butt; stroke-dashoffset: 0; stroke-linejoin: miter; stroke-miterlimit: 4; fill: none; fill-rule: nonzero; opacity: 1;" vector-effect="non-scaling-stroke"  transform=" translate(0, 0)" d="M -22.775 -0.00005 L 22.775 -0.00005 L 22.775 0.00005 L -22.775 0.00005 z" stroke-linecap="round" />
</g>
<g transform="matrix(1.15 0 0 1.25 15.84 28.9)" id="iMmki-e1QTnClkEtZ-v8g"  >
<path style="stroke: rgb(120,161,12); stroke-width: 0; stroke-dasharray: none; stroke-linecap: butt; stroke-dashoffset: 0; stroke-linejoin: miter; stroke-miterlimit: 4; fill: rgb(0,0,0); fill-rule: nonzero; opacity: 1;" vector-effect="non-scaling-stroke"  transform=" translate(0, 0)" d="M 0 -0.76705 C 0.42341 -0.76705 0.76705 -0.42341 0.76705 0 C 0.76705 0.42341 0.42341 0.76705 0 0.76705 C -0.42341 0.76705 -0.76705 0.42341 -0.76705 0 C -0.76705 -0.42341 -0.42341 -0.76705 0 -0.76705 z" stroke-linecap="round" />
</g>
<g transform="matrix(1.15 0 0 1.25 19.89 28.9)" id="bMMqRhrRdflonlyrEYec_"  >
<path style="stroke: rgb(120,161,12); stroke-width: 0; stroke-dasharray: none; stroke-linecap: butt; stroke-dashoffset: 0; stroke-linejoin: miter; stroke-miterlimit: 4; fill: rgb(0,0,0); fill-rule: nonzero; opacity: 1;" vector-effect="non-scaling-stroke"  transform=" translate(0, 0)" d="M 0 -0.76705 C 0.42341 -0.76705 0.76705 -0.42341 0.76705 0 C 0.76705 0.42341 0.42341 0.76705 0 0.76705 C -0.42341 0.76705 -0.76705 0.42341 -0.76705 0 C -0.76705 -0.42341 -0.42341 -0.76705 0 -0.76705 z" stroke-linecap="round" />
</g>
<g transform="matrix(1.15 0 0 1.25 24.19 28.9)" id="8A_kbOM-5KLVSQ6EJ_rlG"  >
<path style="stroke: rgb(120,161,12); stroke-width: 0; stroke-dasharray: none; stroke-linecap: butt; stroke-dashoffset: 0; stroke-linejoin: miter; stroke-miterlimit: 4; fill: rgb(0,0,0); fill-rule: nonzero; opacity: 1;" vector-effect="non-scaling-stroke"  transform=" translate(0, 0)" d="M 0 -0.76705 C 0.42341 -0.76705 0.76705 -0.42341 0.76705 0 C 0.76705 0.42341 0.42341 0.76705 0 0.76705 C -0.42341 0.76705 -0.76705 0.42341 -0.76705 0 C -0.76705 -0.42341 -0.42341 -0.76705 0 -0.76705 z" stroke-linecap="round" />
</g>
</svg>