<?xml version="1.0" encoding="UTF-8" standalone="no" ?>
<!DOCTYPE svg PUBLIC "-//W3C//DTD SVG 1.1//EN" "http://www.w3.org/Graphics/SVG/1.1/DTD/svg11.dtd">
<svg xmlns="http://www.w3.org/2000/svg" xmlns:xlink="http://www.w3.org/1999/xlink" version="1.1" width="40" height="40" viewBox="0 0 40 40" xml:space="preserve">
<desc>Created with Fabric.js 4.6.0</desc>
<defs>
</defs>
<g transform="matrix(0 0.09 1.16 0 36.94 4.81)" id="dSP65oEp0JMh1TZHnJUzP"  >
<path style="stroke: rgb(139,52,162); stroke-width: 0; stroke-dasharray: none; stroke-linecap: butt; stroke-dashoffset: 0; stroke-linejoin: miter; stroke-miterlimit: 4; fill: rgb(0,0,0); fill-rule: nonzero; opacity: 1;" vector-effect="non-scaling-stroke"  transform=" translate(0, 0)" d="M -2.44499 -2.44499 L 2.44499 -2.44499 L 2.44499 2.44499 L -2.44499 2.44499 z" stroke-linecap="round" />
</g>
<g transform="matrix(0.52 -0.46 0.06 0.04 30.96 3.64)" id="J6yUVuefAgSbee4HkUeEq"  >
<path style="stroke: rgb(139,52,162); stroke-width: 0; stroke-dasharray: none; stroke-linecap: butt; stroke-dashoffset: 0; stroke-linejoin: miter; stroke-miterlimit: 4; fill: rgb(0,0,0); fill-rule: nonzero; opacity: 1;" vector-effect="non-scaling-stroke"  transform=" translate(0, 0)" d="M -2.44499 -2.44499 L 2.44499 -2.44499 L 2.44499 2.44499 L -2.44499 2.44499 z" stroke-linecap="round" />
</g>
<g transform="matrix(0.02 -0.01 -0.01 -0.02 32.83 2.4)" id="NGt3V3D4NCkSluSwWw4sh"  >
<path style="stroke: none; stroke-width: 0; stroke-dasharray: none; stroke-linecap: butt; stroke-dashoffset: 0; stroke-linejoin: miter; stroke-miterlimit: 4; fill: rgb(0,0,0); fill-rule: nonzero; opacity: 1;" vector-effect="non-scaling-stroke"  transform=" translate(-40, -40)" d="M 60 40 L 80 80 L 40 80 L 0 80 L 20 40 L 40 0 L 60 40 z" stroke-linecap="round" />
</g>
<g transform="matrix(0 -0.63 0.09 0 5.7 38.42)" id="lxfNtmBv0g3jh5kDUI6XZ"  >
<path style="stroke: rgb(139,52,162); stroke-width: 0; stroke-dasharray: none; stroke-linecap: butt; stroke-dashoffset: 0; stroke-linejoin: miter; stroke-miterlimit: 4; fill: rgb(0,0,0); fill-rule: nonzero; opacity: 1;" vector-effect="non-scaling-stroke"  transform=" translate(0, 0)" d="M -2.44499 -2.44499 L 2.44499 -2.44499 L 2.44499 2.44499 L -2.44499 2.44499 z" stroke-linecap="round" />
</g>
<g transform="matrix(6.13 0 0 6.57 17.23 18.45)" id="S6lAl6dO2Dpksxpi8gXUo"  >
<path style="stroke: rgb(0,0,0); stroke-width: 0.5; stroke-dasharray: none; stroke-linecap: butt; stroke-dashoffset: 0; stroke-linejoin: miter; stroke-miterlimit: 4; fill: none; fill-rule: nonzero; opacity: 1;" vector-effect="non-scaling-stroke"  transform=" translate(0, 0)" d="M -2.76515 -2.76515 L 2.76515 -2.76515 L 2.76515 2.76515 L -2.76515 2.76515 z" stroke-linecap="round" />
</g>
<g transform="matrix(0 -7.16 0.07 0 39.79 22.1)" id="K9D6ezRr6qG2r3Ctiym50"  >
<path style="stroke: rgb(139,52,162); stroke-width: 0; stroke-dasharray: none; stroke-linecap: butt; stroke-dashoffset: 0; stroke-linejoin: miter; stroke-miterlimit: 4; fill: rgb(0,0,0); fill-rule: nonzero; opacity: 1;" vector-effect="non-scaling-stroke"  transform=" translate(0, 0)" d="M -2.44499 -2.44499 L 2.44499 -2.44499 L 2.44499 2.44499 L -2.44499 2.44499 z" stroke-linecap="round" />
</g>
<g transform="matrix(0 0.09 7.06 0 22.71 39.75)" id="KzY64UF0oP3kADxV73kto"  >
<path style="stroke: rgb(139,52,162); stroke-width: 0; stroke-dasharray: none; stroke-linecap: butt; stroke-dashoffset: 0; stroke-linejoin: miter; stroke-miterlimit: 4; fill: rgb(0,0,0); fill-rule: nonzero; opacity: 1;" vector-effect="non-scaling-stroke"  transform=" translate(0, 0)" d="M -2.44499 -2.44499 L 2.44499 -2.44499 L 2.44499 2.44499 L -2.44499 2.44499 z" stroke-linecap="round" />
</g>
</svg>