<svg xmlns="http://www.w3.org/2000/svg" viewBox="286.15 190.98 50 2.99">
  <g transform="matrix(1, 0, 0, 1, 311.151041, 192.259222)" id="og8kf5g6dCUrfA1Fr3kbQ">
    <path style="stroke: rgb(140,177,109); stroke-width: 0; stroke-dasharray: none; stroke-linecap: butt; stroke-dashoffset: 0; stroke-linejoin: miter; stroke-miterlimit: 4; fill: rgb(0,0,0); fill-rule: nonzero; opacity: 1;" vector-effect="non-scaling-stroke" transform=" translate(-25, -0.26)" d="M 0 0 L 50 0 L 50 0.52083 L 0 0.52083 z" stroke-linecap="round"/>
  </g>
  <g transform="matrix(1, 0, 0, 1, 293.181008, 185.329214)" id="HakdLbf0_QNbS4sfoQuqc">
    <path style="stroke: rgb(0,0,0); stroke-width: 1; stroke-dasharray: none; stroke-linecap: butt; stroke-dashoffset: 0; stroke-linejoin: miter; stroke-miterlimit: 4; fill: rgb(255,255,255); fill-opacity: 0; fill-rule: nonzero; opacity: 1;" vector-effect="non-scaling-stroke" transform=" translate(0, 0)" d="M 0 0" stroke-linecap="round"/>
  </g>
  <g transform="matrix(1, 0, 0, 1, 303.181009, 195.329214)" id="TFGw_YeYB08gRMq1pnwSg">
    <path style="stroke: rgb(0,0,0); stroke-width: 1; stroke-dasharray: none; stroke-linecap: butt; stroke-dashoffset: 0; stroke-linejoin: miter; stroke-miterlimit: 4; fill: rgb(255,255,255); fill-opacity: 0; fill-rule: nonzero; opacity: 1;" vector-effect="non-scaling-stroke" transform=" translate(0, 0)" d="M 0 0" stroke-linecap="round"/>
  </g>
  <g transform="matrix(0.68, 0, 0, 0.68, 330.875956, 192.478689)" id="1SGVLImvzijj6F_xzskSo">
    <path style="stroke: rgb(167,205,74); stroke-width: 0; stroke-dasharray: none; stroke-linecap: butt; stroke-dashoffset: 0; stroke-linejoin: miter; stroke-miterlimit: 4; fill: rgb(0,0,0); fill-rule: nonzero; opacity: 1;" vector-effect="non-scaling-stroke" transform=" translate(0, 0)" d="M -2.20049 -2.20049 L 2.20049 -2.20049 L 2.20049 2.20049 L -2.20049 2.20049 z" stroke-linecap="round"/>
  </g>
  <g transform="matrix(0.744472, 0, 0, 0.908713, 311.330637, 192.175192)" id="ENA_DfPGUFgpmVznbpnMZ" style="">
    <path style="stroke: rgb(249,8,169); stroke-width: 0; stroke-dasharray: none; stroke-linecap: butt; stroke-dashoffset: 0; stroke-linejoin: miter; stroke-miterlimit: 4; fill: rgb(0,0,0); fill-rule: nonzero; opacity: 1;" vector-effect="non-scaling-stroke" transform=" translate(0, 0)" d="M 0 -1.2714 C 0.70181 -1.2714 1.2714 -0.70181 1.2714 0 C 1.2714 0.70181 0.70181 1.2714 0 1.2714 C -0.70181 1.2714 -1.2714 0.70181 -1.2714 0 C -1.2714 -0.70181 -0.70181 -1.2714 0 -1.2714 z" stroke-linecap="round"/>
  </g>
</svg>