<?xml version="1.0" encoding="UTF-8" standalone="no" ?>
<!DOCTYPE svg PUBLIC "-//W3C//DTD SVG 1.1//EN" "http://www.w3.org/Graphics/SVG/1.1/DTD/svg11.dtd">
<svg xmlns="http://www.w3.org/2000/svg" xmlns:xlink="http://www.w3.org/1999/xlink" version="1.1" width="40" height="40" viewBox="0 0 40 40" xml:space="preserve">
<desc>Created with Fabric.js 4.6.0</desc>
<defs>
</defs>
<g transform="matrix(1.92 0 0 0.13 19.99 1.69)" id="AizuvqeKMzawDr0uU-KN7"  >
<path style="stroke: rgb(0,0,0); stroke-width: 0.5; stroke-dasharray: none; stroke-linecap: butt; stroke-dashoffset: 0; stroke-linejoin: miter; stroke-miterlimit: 4; fill: none; fill-rule: nonzero; opacity: 1;" vector-effect="non-scaling-stroke"  transform=" translate(0, 0)" d="M -10.26515 -10.26515 L 10.26515 -10.26515 L 10.26515 10.26515 L -10.26515 10.26515 z" stroke-linecap="round" />
</g>
<g transform="matrix(1.74 0 0 1.78 19.99 21.33)" id="8UfMRL__SYEPkqzdoEoKX"  >
<path style="stroke: rgb(0,0,0); stroke-width: 0.5; stroke-dasharray: none; stroke-linecap: butt; stroke-dashoffset: 0; stroke-linejoin: miter; stroke-miterlimit: 4; fill: none; fill-rule: nonzero; opacity: 1;" vector-effect="non-scaling-stroke"  transform=" translate(0, 0)" d="M -10.26515 -10.26515 L 10.26515 -10.26515 L 10.26515 10.26515 L -10.26515 10.26515 z" stroke-linecap="round" />
</g>
<g transform="matrix(0.37 0 0 1.78 34.01 21.33)" id="Uy6J-KacOb5BBUwtJEBsM"  >
<path style="stroke: rgb(0,0,0); stroke-width: 0.5; stroke-dasharray: none; stroke-linecap: butt; stroke-dashoffset: 0; stroke-linejoin: miter; stroke-miterlimit: 4; fill: none; fill-rule: nonzero; opacity: 1;" vector-effect="non-scaling-stroke"  transform=" translate(0, 0)" d="M -10.26515 -10.26515 L 10.26515 -10.26515 L 10.26515 10.26515 L -10.26515 10.26515 z" stroke-linecap="round" />
</g>
<g transform="matrix(0.37 0 0 0.9 34.01 30.34)" id="LXudeA1sw0k5mjlLVuf8L"  >
<path style="stroke: rgb(0,0,0); stroke-width: 0.5; stroke-dasharray: none; stroke-linecap: butt; stroke-dashoffset: 0; stroke-linejoin: miter; stroke-miterlimit: 4; fill: none; fill-rule: nonzero; opacity: 1;" vector-effect="non-scaling-stroke"  transform=" translate(0, 0)" d="M -10.26515 -10.26515 L 10.26515 -10.26515 L 10.26515 10.26515 L -10.26515 10.26515 z" stroke-linecap="round" />
</g>
<g transform="matrix(0.29 0 0 0.36 34.01 12.3)" id="WOz9Zhywxl9kLtZ7ozu6W"  >
<path style="stroke: rgb(0,0,0); stroke-width: 0.5; stroke-dasharray: none; stroke-linecap: butt; stroke-dashoffset: 0; stroke-linejoin: miter; stroke-miterlimit: 4; fill: none; fill-rule: nonzero; opacity: 1;" vector-effect="non-scaling-stroke"  transform=" translate(0, 0)" d="M -10.26515 -10.26515 L 10.26515 -10.26515 L 10.26515 10.26515 L -10.26515 10.26515 z" stroke-linecap="round" />
</g>
</svg>