<?xml version="1.0" encoding="UTF-8" standalone="no" ?>
<!DOCTYPE svg PUBLIC "-//W3C//DTD SVG 1.1//EN" "http://www.w3.org/Graphics/SVG/1.1/DTD/svg11.dtd">
<svg xmlns="http://www.w3.org/2000/svg" xmlns:xlink="http://www.w3.org/1999/xlink" version="1.1" width="40" height="40" viewBox="0 0 40 40" xml:space="preserve">
<desc>Created with Fabric.js 4.6.0</desc>
<defs>
</defs>
<g transform="matrix(0 0.09 0.71 0 32.97 0.27)" id="JZxVSofQ1urerpIAWryBq"  >
<path style="stroke: rgb(139,52,162); stroke-width: 0; stroke-dasharray: none; stroke-linecap: butt; stroke-dashoffset: 0; stroke-linejoin: miter; stroke-miterlimit: 4; fill: rgb(0,0,0); fill-rule: nonzero; opacity: 1;" vector-effect="non-scaling-stroke"  transform=" translate(0, 0)" d="M -2.44499 -2.44499 L 2.44499 -2.44499 L 2.44499 2.44499 L -2.44499 2.44499 z" stroke-linecap="round" />
</g>
<g transform="matrix(0 0.09 0.72 0 28.65 0.27)" id="g7WSGJ5m42Kt9t1-uluXv"  >
<path style="stroke: rgb(139,52,162); stroke-width: 0; stroke-dasharray: none; stroke-linecap: butt; stroke-dashoffset: 0; stroke-linejoin: miter; stroke-miterlimit: 4; fill: rgb(0,0,0); fill-rule: nonzero; opacity: 1;" vector-effect="non-scaling-stroke"  transform=" translate(0, 0)" d="M -2.44499 -2.44499 L 2.44499 -2.44499 L 2.44499 2.44499 L -2.44499 2.44499 z" stroke-linecap="round" />
</g>
<g transform="matrix(0 0.09 0.72 0 24.29 0.27)" id="Too_YVDNwMiJmG3Z4fZ5C"  >
<path style="stroke: rgb(139,52,162); stroke-width: 0; stroke-dasharray: none; stroke-linecap: butt; stroke-dashoffset: 0; stroke-linejoin: miter; stroke-miterlimit: 4; fill: rgb(0,0,0); fill-rule: nonzero; opacity: 1;" vector-effect="non-scaling-stroke"  transform=" translate(0, 0)" d="M -2.44499 -2.44499 L 2.44499 -2.44499 L 2.44499 2.44499 L -2.44499 2.44499 z" stroke-linecap="round" />
</g>
<g transform="matrix(0 0.09 0.72 0 19.95 0.27)" id="_1HfLz568FSHBu8V0Zjxn"  >
<path style="stroke: rgb(139,52,162); stroke-width: 0; stroke-dasharray: none; stroke-linecap: butt; stroke-dashoffset: 0; stroke-linejoin: miter; stroke-miterlimit: 4; fill: rgb(0,0,0); fill-rule: nonzero; opacity: 1;" vector-effect="non-scaling-stroke"  transform=" translate(0, 0)" d="M -2.44499 -2.44499 L 2.44499 -2.44499 L 2.44499 2.44499 L -2.44499 2.44499 z" stroke-linecap="round" />
</g>
<g transform="matrix(0 0.09 0.72 0 15.97 0.26)" id="cQ4GMjxPuo0uuOFfmnu8J"  >
<path style="stroke: rgb(139,52,162); stroke-width: 0; stroke-dasharray: none; stroke-linecap: butt; stroke-dashoffset: 0; stroke-linejoin: miter; stroke-miterlimit: 4; fill: rgb(0,0,0); fill-rule: nonzero; opacity: 1;" vector-effect="non-scaling-stroke"  transform=" translate(0, 0)" d="M -2.44499 -2.44499 L 2.44499 -2.44499 L 2.44499 2.44499 L -2.44499 2.44499 z" stroke-linecap="round" />
</g>
<g transform="matrix(0 0.09 0.72 0 11.66 0.26)" id="SA6SIGvj5wTPiuBT3guZ-"  >
<path style="stroke: rgb(139,52,162); stroke-width: 0; stroke-dasharray: none; stroke-linecap: butt; stroke-dashoffset: 0; stroke-linejoin: miter; stroke-miterlimit: 4; fill: rgb(0,0,0); fill-rule: nonzero; opacity: 1;" vector-effect="non-scaling-stroke"  transform=" translate(0, 0)" d="M -2.44499 -2.44499 L 2.44499 -2.44499 L 2.44499 2.44499 L -2.44499 2.44499 z" stroke-linecap="round" />
</g>
<g transform="matrix(0 0.09 0.72 0 7.28 0.27)" id="fFEmSSzZFpUwHr0CT88pa"  >
<path style="stroke: rgb(139,52,162); stroke-width: 0; stroke-dasharray: none; stroke-linecap: butt; stroke-dashoffset: 0; stroke-linejoin: miter; stroke-miterlimit: 4; fill: rgb(0,0,0); fill-rule: nonzero; opacity: 1;" vector-effect="non-scaling-stroke"  transform=" translate(0, 0)" d="M -2.44499 -2.44499 L 2.44499 -2.44499 L 2.44499 2.44499 L -2.44499 2.44499 z" stroke-linecap="round" />
</g>
<g transform="matrix(0 0.09 0.72 0 2.95 0.27)" id="J3jJbzTHEckz9EVSFoZCa"  >
<path style="stroke: rgb(139,52,162); stroke-width: 0; stroke-dasharray: none; stroke-linecap: butt; stroke-dashoffset: 0; stroke-linejoin: miter; stroke-miterlimit: 4; fill: rgb(0,0,0); fill-rule: nonzero; opacity: 1;" vector-effect="non-scaling-stroke"  transform=" translate(0, 0)" d="M -2.44499 -2.44499 L 2.44499 -2.44499 L 2.44499 2.44499 L -2.44499 2.44499 z" stroke-linecap="round" />
</g>
<g transform="matrix(0 -0.6 0.09 0 34.48 6.53)" id="4VKPbpie16YBfEbfrD2iS"  >
<path style="stroke: rgb(139,52,162); stroke-width: 0; stroke-dasharray: none; stroke-linecap: butt; stroke-dashoffset: 0; stroke-linejoin: miter; stroke-miterlimit: 4; fill: rgb(0,0,0); fill-rule: nonzero; opacity: 1;" vector-effect="non-scaling-stroke"  transform=" translate(0, 0)" d="M -2.44499 -2.44499 L 2.44499 -2.44499 L 2.44499 2.44499 L -2.44499 2.44499 z" stroke-linecap="round" />
</g>
<g transform="matrix(0 0.09 0.72 0 32.99 36.14)" id="PELGenApNA1M28xeNrgRO"  >
<path style="stroke: rgb(139,52,162); stroke-width: 0; stroke-dasharray: none; stroke-linecap: butt; stroke-dashoffset: 0; stroke-linejoin: miter; stroke-miterlimit: 4; fill: rgb(0,0,0); fill-rule: nonzero; opacity: 1;" vector-effect="non-scaling-stroke"  transform=" translate(0, 0)" d="M -2.44499 -2.44499 L 2.44499 -2.44499 L 2.44499 2.44499 L -2.44499 2.44499 z" stroke-linecap="round" />
</g>
<g transform="matrix(0 0.09 0.72 0 28.66 36.14)" id="9Z3CRUXK_Il3unmAw64oS"  >
<path style="stroke: rgb(139,52,162); stroke-width: 0; stroke-dasharray: none; stroke-linecap: butt; stroke-dashoffset: 0; stroke-linejoin: miter; stroke-miterlimit: 4; fill: rgb(0,0,0); fill-rule: nonzero; opacity: 1;" vector-effect="non-scaling-stroke"  transform=" translate(0, 0)" d="M -2.44499 -2.44499 L 2.44499 -2.44499 L 2.44499 2.44499 L -2.44499 2.44499 z" stroke-linecap="round" />
</g>
<g transform="matrix(0 0.09 0.72 0 24.29 36.15)" id="cJBvkg94FUIycQKwCh1vh"  >
<path style="stroke: rgb(139,52,162); stroke-width: 0; stroke-dasharray: none; stroke-linecap: butt; stroke-dashoffset: 0; stroke-linejoin: miter; stroke-miterlimit: 4; fill: rgb(0,0,0); fill-rule: nonzero; opacity: 1;" vector-effect="non-scaling-stroke"  transform=" translate(0, 0)" d="M -2.44499 -2.44499 L 2.44499 -2.44499 L 2.44499 2.44499 L -2.44499 2.44499 z" stroke-linecap="round" />
</g>
<g transform="matrix(0 0.09 0.72 0 19.95 36.15)" id="rUPYKgqaPEfNWvLVBHmQC"  >
<path style="stroke: rgb(139,52,162); stroke-width: 0; stroke-dasharray: none; stroke-linecap: butt; stroke-dashoffset: 0; stroke-linejoin: miter; stroke-miterlimit: 4; fill: rgb(0,0,0); fill-rule: nonzero; opacity: 1;" vector-effect="non-scaling-stroke"  transform=" translate(0, 0)" d="M -2.44499 -2.44499 L 2.44499 -2.44499 L 2.44499 2.44499 L -2.44499 2.44499 z" stroke-linecap="round" />
</g>
<g transform="matrix(0 0.09 0.72 0 15.97 36.13)" id="qXhx_GubNExNe_MOyk4J_"  >
<path style="stroke: rgb(139,52,162); stroke-width: 0; stroke-dasharray: none; stroke-linecap: butt; stroke-dashoffset: 0; stroke-linejoin: miter; stroke-miterlimit: 4; fill: rgb(0,0,0); fill-rule: nonzero; opacity: 1;" vector-effect="non-scaling-stroke"  transform=" translate(0, 0)" d="M -2.44499 -2.44499 L 2.44499 -2.44499 L 2.44499 2.44499 L -2.44499 2.44499 z" stroke-linecap="round" />
</g>
<g transform="matrix(0 0.09 0.72 0 11.66 36.13)" id="GmMlDF7SpWixg8q1e0aKD"  >
<path style="stroke: rgb(139,52,162); stroke-width: 0; stroke-dasharray: none; stroke-linecap: butt; stroke-dashoffset: 0; stroke-linejoin: miter; stroke-miterlimit: 4; fill: rgb(0,0,0); fill-rule: nonzero; opacity: 1;" vector-effect="non-scaling-stroke"  transform=" translate(0, 0)" d="M -2.44499 -2.44499 L 2.44499 -2.44499 L 2.44499 2.44499 L -2.44499 2.44499 z" stroke-linecap="round" />
</g>
<g transform="matrix(0 0.09 0.72 0 7.28 36.14)" id="-myps8WMrt__FCfZSWhNZ"  >
<path style="stroke: rgb(139,52,162); stroke-width: 0; stroke-dasharray: none; stroke-linecap: butt; stroke-dashoffset: 0; stroke-linejoin: miter; stroke-miterlimit: 4; fill: rgb(0,0,0); fill-rule: nonzero; opacity: 1;" vector-effect="non-scaling-stroke"  transform=" translate(0, 0)" d="M -2.44499 -2.44499 L 2.44499 -2.44499 L 2.44499 2.44499 L -2.44499 2.44499 z" stroke-linecap="round" />
</g>
<g transform="matrix(0 0.09 0.72 0 2.95 36.14)" id="jRp632YQTMZ_hb84Kaqgh"  >
<path style="stroke: rgb(139,52,162); stroke-width: 0; stroke-dasharray: none; stroke-linecap: butt; stroke-dashoffset: 0; stroke-linejoin: miter; stroke-miterlimit: 4; fill: rgb(0,0,0); fill-rule: nonzero; opacity: 1;" vector-effect="non-scaling-stroke"  transform=" translate(0, 0)" d="M -2.44499 -2.44499 L 2.44499 -2.44499 L 2.44499 2.44499 L -2.44499 2.44499 z" stroke-linecap="round" />
</g>
<g transform="matrix(0 -0.6 0.08 0 34.48 2.57)" id="NXylTTELzziIHRXg2AhJ6"  >
<path style="stroke: rgb(139,52,162); stroke-width: 0; stroke-dasharray: none; stroke-linecap: butt; stroke-dashoffset: 0; stroke-linejoin: miter; stroke-miterlimit: 4; fill: rgb(0,0,0); fill-rule: nonzero; opacity: 1;" vector-effect="non-scaling-stroke"  transform=" translate(0, 0)" d="M -2.44499 -2.44499 L 2.44499 -2.44499 L 2.44499 2.44499 L -2.44499 2.44499 z" stroke-linecap="round" />
</g>
<g transform="matrix(0 -0.6 0.08 0 34.48 14.46)" id="KnIuJx4k93S147QwMspx3"  >
<path style="stroke: rgb(139,52,162); stroke-width: 0; stroke-dasharray: none; stroke-linecap: butt; stroke-dashoffset: 0; stroke-linejoin: miter; stroke-miterlimit: 4; fill: rgb(0,0,0); fill-rule: nonzero; opacity: 1;" vector-effect="non-scaling-stroke"  transform=" translate(0, 0)" d="M -2.44499 -2.44499 L 2.44499 -2.44499 L 2.44499 2.44499 L -2.44499 2.44499 z" stroke-linecap="round" />
</g>
<g transform="matrix(0 -0.6 0.08 0 34.48 10.5)" id="O2RBhvxnlUhdEQUAfoshu"  >
<path style="stroke: rgb(139,52,162); stroke-width: 0; stroke-dasharray: none; stroke-linecap: butt; stroke-dashoffset: 0; stroke-linejoin: miter; stroke-miterlimit: 4; fill: rgb(0,0,0); fill-rule: nonzero; opacity: 1;" vector-effect="non-scaling-stroke"  transform=" translate(0, 0)" d="M -2.44499 -2.44499 L 2.44499 -2.44499 L 2.44499 2.44499 L -2.44499 2.44499 z" stroke-linecap="round" />
</g>
<g transform="matrix(0 -0.6 0.08 0 34.48 22.29)" id="nl_X9b3-wjekQjJbEgVt9"  >
<path style="stroke: rgb(139,52,162); stroke-width: 0; stroke-dasharray: none; stroke-linecap: butt; stroke-dashoffset: 0; stroke-linejoin: miter; stroke-miterlimit: 4; fill: rgb(0,0,0); fill-rule: nonzero; opacity: 1;" vector-effect="non-scaling-stroke"  transform=" translate(0, 0)" d="M -2.44499 -2.44499 L 2.44499 -2.44499 L 2.44499 2.44499 L -2.44499 2.44499 z" stroke-linecap="round" />
</g>
<g transform="matrix(0 -0.6 0.08 0 34.48 18.33)" id="SNDlAKdTNCC0dtDyzIcB8"  >
<path style="stroke: rgb(139,52,162); stroke-width: 0; stroke-dasharray: none; stroke-linecap: butt; stroke-dashoffset: 0; stroke-linejoin: miter; stroke-miterlimit: 4; fill: rgb(0,0,0); fill-rule: nonzero; opacity: 1;" vector-effect="non-scaling-stroke"  transform=" translate(0, 0)" d="M -2.44499 -2.44499 L 2.44499 -2.44499 L 2.44499 2.44499 L -2.44499 2.44499 z" stroke-linecap="round" />
</g>
<g transform="matrix(0 -0.6 0.08 0 34.48 30.21)" id="Yu7oHCSu4XuPIc_Fkra7U"  >
<path style="stroke: rgb(139,52,162); stroke-width: 0; stroke-dasharray: none; stroke-linecap: butt; stroke-dashoffset: 0; stroke-linejoin: miter; stroke-miterlimit: 4; fill: rgb(0,0,0); fill-rule: nonzero; opacity: 1;" vector-effect="non-scaling-stroke"  transform=" translate(0, 0)" d="M -2.44499 -2.44499 L 2.44499 -2.44499 L 2.44499 2.44499 L -2.44499 2.44499 z" stroke-linecap="round" />
</g>
<g transform="matrix(0 -0.6 0.08 0 34.48 26.25)" id="iw1LkT8BtRZIvDKgJCc_c"  >
<path style="stroke: rgb(139,52,162); stroke-width: 0; stroke-dasharray: none; stroke-linecap: butt; stroke-dashoffset: 0; stroke-linejoin: miter; stroke-miterlimit: 4; fill: rgb(0,0,0); fill-rule: nonzero; opacity: 1;" vector-effect="non-scaling-stroke"  transform=" translate(0, 0)" d="M -2.44499 -2.44499 L 2.44499 -2.44499 L 2.44499 2.44499 L -2.44499 2.44499 z" stroke-linecap="round" />
</g>
<g transform="matrix(0 -0.6 0.08 0 34.48 33.87)" id="W_tkYOFoBFzX7-05Qaefu"  >
<path style="stroke: rgb(139,52,162); stroke-width: 0; stroke-dasharray: none; stroke-linecap: butt; stroke-dashoffset: 0; stroke-linejoin: miter; stroke-miterlimit: 4; fill: rgb(0,0,0); fill-rule: nonzero; opacity: 1;" vector-effect="non-scaling-stroke"  transform=" translate(0, 0)" d="M -2.44499 -2.44499 L 2.44499 -2.44499 L 2.44499 2.44499 L -2.44499 2.44499 z" stroke-linecap="round" />
</g>
<g transform="matrix(0 -0.6 0.08 0 0.14 6.53)" id="_or_mReG-7rSbIo8LUGW7"  >
<path style="stroke: rgb(139,52,162); stroke-width: 0; stroke-dasharray: none; stroke-linecap: butt; stroke-dashoffset: 0; stroke-linejoin: miter; stroke-miterlimit: 4; fill: rgb(0,0,0); fill-rule: nonzero; opacity: 1;" vector-effect="non-scaling-stroke"  transform=" translate(0, 0)" d="M -2.44499 -2.44499 L 2.44499 -2.44499 L 2.44499 2.44499 L -2.44499 2.44499 z" stroke-linecap="round" />
</g>
<g transform="matrix(0 -0.6 0.08 0 0.14 2.57)" id="IvLBPXH13Gs-Xt44SBfJP"  >
<path style="stroke: rgb(139,52,162); stroke-width: 0; stroke-dasharray: none; stroke-linecap: butt; stroke-dashoffset: 0; stroke-linejoin: miter; stroke-miterlimit: 4; fill: rgb(0,0,0); fill-rule: nonzero; opacity: 1;" vector-effect="non-scaling-stroke"  transform=" translate(0, 0)" d="M -2.44499 -2.44499 L 2.44499 -2.44499 L 2.44499 2.44499 L -2.44499 2.44499 z" stroke-linecap="round" />
</g>
<g transform="matrix(0 -0.6 0.08 0 0.14 14.46)" id="SED3i75ZyAatcwUvorRXT"  >
<path style="stroke: rgb(139,52,162); stroke-width: 0; stroke-dasharray: none; stroke-linecap: butt; stroke-dashoffset: 0; stroke-linejoin: miter; stroke-miterlimit: 4; fill: rgb(0,0,0); fill-rule: nonzero; opacity: 1;" vector-effect="non-scaling-stroke"  transform=" translate(0, 0)" d="M -2.44499 -2.44499 L 2.44499 -2.44499 L 2.44499 2.44499 L -2.44499 2.44499 z" stroke-linecap="round" />
</g>
<g transform="matrix(0 -0.6 0.08 0 0.14 10.5)" id="krDYNyi4e1fy3z38TJ5lm"  >
<path style="stroke: rgb(139,52,162); stroke-width: 0; stroke-dasharray: none; stroke-linecap: butt; stroke-dashoffset: 0; stroke-linejoin: miter; stroke-miterlimit: 4; fill: rgb(0,0,0); fill-rule: nonzero; opacity: 1;" vector-effect="non-scaling-stroke"  transform=" translate(0, 0)" d="M -2.44499 -2.44499 L 2.44499 -2.44499 L 2.44499 2.44499 L -2.44499 2.44499 z" stroke-linecap="round" />
</g>
<g transform="matrix(0 -0.6 0.08 0 0.14 22.29)" id="NHJSlh1J98WT7xxbpVlq2"  >
<path style="stroke: rgb(139,52,162); stroke-width: 0; stroke-dasharray: none; stroke-linecap: butt; stroke-dashoffset: 0; stroke-linejoin: miter; stroke-miterlimit: 4; fill: rgb(0,0,0); fill-rule: nonzero; opacity: 1;" vector-effect="non-scaling-stroke"  transform=" translate(0, 0)" d="M -2.44499 -2.44499 L 2.44499 -2.44499 L 2.44499 2.44499 L -2.44499 2.44499 z" stroke-linecap="round" />
</g>
<g transform="matrix(0 -0.6 0.08 0 0.14 18.33)" id="_IaUv3dYg-6-Tw0IkICqB"  >
<path style="stroke: rgb(139,52,162); stroke-width: 0; stroke-dasharray: none; stroke-linecap: butt; stroke-dashoffset: 0; stroke-linejoin: miter; stroke-miterlimit: 4; fill: rgb(0,0,0); fill-rule: nonzero; opacity: 1;" vector-effect="non-scaling-stroke"  transform=" translate(0, 0)" d="M -2.44499 -2.44499 L 2.44499 -2.44499 L 2.44499 2.44499 L -2.44499 2.44499 z" stroke-linecap="round" />
</g>
<g transform="matrix(0 -0.6 0.08 0 0.14 30.21)" id="U9wrGe-dwQgDQQAWDyx7g"  >
<path style="stroke: rgb(139,52,162); stroke-width: 0; stroke-dasharray: none; stroke-linecap: butt; stroke-dashoffset: 0; stroke-linejoin: miter; stroke-miterlimit: 4; fill: rgb(0,0,0); fill-rule: nonzero; opacity: 1;" vector-effect="non-scaling-stroke"  transform=" translate(0, 0)" d="M -2.44499 -2.44499 L 2.44499 -2.44499 L 2.44499 2.44499 L -2.44499 2.44499 z" stroke-linecap="round" />
</g>
<g transform="matrix(0 -0.6 0.08 0 0.14 26.25)" id="dnTP2JriRnVuC4GMuai4E"  >
<path style="stroke: rgb(139,52,162); stroke-width: 0; stroke-dasharray: none; stroke-linecap: butt; stroke-dashoffset: 0; stroke-linejoin: miter; stroke-miterlimit: 4; fill: rgb(0,0,0); fill-rule: nonzero; opacity: 1;" vector-effect="non-scaling-stroke"  transform=" translate(0, 0)" d="M -2.44499 -2.44499 L 2.44499 -2.44499 L 2.44499 2.44499 L -2.44499 2.44499 z" stroke-linecap="round" />
</g>
<g transform="matrix(0 -0.6 0.08 0 0.14 33.88)" id="I0FZBA7E34AtQjBKAwe3t"  >
<path style="stroke: rgb(139,52,162); stroke-width: 0; stroke-dasharray: none; stroke-linecap: butt; stroke-dashoffset: 0; stroke-linejoin: miter; stroke-miterlimit: 4; fill: rgb(0,0,0); fill-rule: nonzero; opacity: 1;" vector-effect="non-scaling-stroke"  transform=" translate(0, 0)" d="M -2.44499 -2.44499 L 2.44499 -2.44499 L 2.44499 2.44499 L -2.44499 2.44499 z" stroke-linecap="round" />
</g>
<g transform="matrix(0 -0.56 0.08 0 39.77 12.83)" id="MM8q1vjDrJBKc_sDmkuOb"  >
<path style="stroke: rgb(139,52,162); stroke-width: 0; stroke-dasharray: none; stroke-linecap: butt; stroke-dashoffset: 0; stroke-linejoin: miter; stroke-miterlimit: 4; fill: rgb(0,0,0); fill-rule: nonzero; opacity: 1;" vector-effect="non-scaling-stroke"  transform=" translate(0, 0)" d="M -2.44499 -2.44499 L 2.44499 -2.44499 L 2.44499 2.44499 L -2.44499 2.44499 z" stroke-linecap="round" />
</g>
<g transform="matrix(0 -0.56 0.08 0 39.77 9.12)" id="2l5qoO_-esCVLJP0gkHOF"  >
<path style="stroke: rgb(139,52,162); stroke-width: 0; stroke-dasharray: none; stroke-linecap: butt; stroke-dashoffset: 0; stroke-linejoin: miter; stroke-miterlimit: 4; fill: rgb(0,0,0); fill-rule: nonzero; opacity: 1;" vector-effect="non-scaling-stroke"  transform=" translate(0, 0)" d="M -2.44499 -2.44499 L 2.44499 -2.44499 L 2.44499 2.44499 L -2.44499 2.44499 z" stroke-linecap="round" />
</g>
<g transform="matrix(0 -0.56 0.08 0 39.77 20.23)" id="JIeftoKtV9m5-4KdYU-Is"  >
<path style="stroke: rgb(139,52,162); stroke-width: 0; stroke-dasharray: none; stroke-linecap: butt; stroke-dashoffset: 0; stroke-linejoin: miter; stroke-miterlimit: 4; fill: rgb(0,0,0); fill-rule: nonzero; opacity: 1;" vector-effect="non-scaling-stroke"  transform=" translate(0, 0)" d="M -2.44499 -2.44499 L 2.44499 -2.44499 L 2.44499 2.44499 L -2.44499 2.44499 z" stroke-linecap="round" />
</g>
<g transform="matrix(0 -0.56 0.08 0 39.77 16.54)" id="y_aee_wm32zzAbULjXzO_"  >
<path style="stroke: rgb(139,52,162); stroke-width: 0; stroke-dasharray: none; stroke-linecap: butt; stroke-dashoffset: 0; stroke-linejoin: miter; stroke-miterlimit: 4; fill: rgb(0,0,0); fill-rule: nonzero; opacity: 1;" vector-effect="non-scaling-stroke"  transform=" translate(0, 0)" d="M -2.44499 -2.44499 L 2.44499 -2.44499 L 2.44499 2.44499 L -2.44499 2.44499 z" stroke-linecap="round" />
</g>
<g transform="matrix(0 -0.56 0.08 0 39.77 27.56)" id="hRmXdk7CjNmlLcsfL3NSh"  >
<path style="stroke: rgb(139,52,162); stroke-width: 0; stroke-dasharray: none; stroke-linecap: butt; stroke-dashoffset: 0; stroke-linejoin: miter; stroke-miterlimit: 4; fill: rgb(0,0,0); fill-rule: nonzero; opacity: 1;" vector-effect="non-scaling-stroke"  transform=" translate(0, 0)" d="M -2.44499 -2.44499 L 2.44499 -2.44499 L 2.44499 2.44499 L -2.44499 2.44499 z" stroke-linecap="round" />
</g>
<g transform="matrix(0 -0.56 0.08 0 39.77 23.85)" id="YqUl95Vahq9bPv5PqRg5M"  >
<path style="stroke: rgb(139,52,162); stroke-width: 0; stroke-dasharray: none; stroke-linecap: butt; stroke-dashoffset: 0; stroke-linejoin: miter; stroke-miterlimit: 4; fill: rgb(0,0,0); fill-rule: nonzero; opacity: 1;" vector-effect="non-scaling-stroke"  transform=" translate(0, 0)" d="M -2.44499 -2.44499 L 2.44499 -2.44499 L 2.44499 2.44499 L -2.44499 2.44499 z" stroke-linecap="round" />
</g>
<g transform="matrix(0 -0.56 0.08 0 39.77 34.95)" id="b4kXEfy50QEoETjVK3cw-"  >
<path style="stroke: rgb(139,52,162); stroke-width: 0; stroke-dasharray: none; stroke-linecap: butt; stroke-dashoffset: 0; stroke-linejoin: miter; stroke-miterlimit: 4; fill: rgb(0,0,0); fill-rule: nonzero; opacity: 1;" vector-effect="non-scaling-stroke"  transform=" translate(0, 0)" d="M -2.44499 -2.44499 L 2.44499 -2.44499 L 2.44499 2.44499 L -2.44499 2.44499 z" stroke-linecap="round" />
</g>
<g transform="matrix(0 -0.56 0.08 0 39.77 31.25)" id="B1Wubt1KwRSIV1flbFPgj"  >
<path style="stroke: rgb(139,52,162); stroke-width: 0; stroke-dasharray: none; stroke-linecap: butt; stroke-dashoffset: 0; stroke-linejoin: miter; stroke-miterlimit: 4; fill: rgb(0,0,0); fill-rule: nonzero; opacity: 1;" vector-effect="non-scaling-stroke"  transform=" translate(0, 0)" d="M -2.44499 -2.44499 L 2.44499 -2.44499 L 2.44499 2.44499 L -2.44499 2.44499 z" stroke-linecap="round" />
</g>
<g transform="matrix(0 -0.56 0.08 0 39.77 38.38)" id="hte_Jd6bw1AaFDyar7l9T"  >
<path style="stroke: rgb(139,52,162); stroke-width: 0; stroke-dasharray: none; stroke-linecap: butt; stroke-dashoffset: 0; stroke-linejoin: miter; stroke-miterlimit: 4; fill: rgb(0,0,0); fill-rule: nonzero; opacity: 1;" vector-effect="non-scaling-stroke"  transform=" translate(0, 0)" d="M -2.44499 -2.44499 L 2.44499 -2.44499 L 2.44499 2.44499 L -2.44499 2.44499 z" stroke-linecap="round" />
</g>
<g transform="matrix(0 0.08 0.67 0 38.33 39.77)" id="hUy6tLHXY6j5266CwpX9t"  >
<path style="stroke: rgb(139,52,162); stroke-width: 0; stroke-dasharray: none; stroke-linecap: butt; stroke-dashoffset: 0; stroke-linejoin: miter; stroke-miterlimit: 4; fill: rgb(0,0,0); fill-rule: nonzero; opacity: 1;" vector-effect="non-scaling-stroke"  transform=" translate(0, 0)" d="M -2.44499 -2.44499 L 2.44499 -2.44499 L 2.44499 2.44499 L -2.44499 2.44499 z" stroke-linecap="round" />
</g>
<g transform="matrix(0 0.08 0.67 0 34.4 39.6)" id="WAlciHHOBpAMTzVfCjqyG"  >
<path style="stroke: rgb(139,52,162); stroke-width: 0; stroke-dasharray: none; stroke-linecap: butt; stroke-dashoffset: 0; stroke-linejoin: miter; stroke-miterlimit: 4; fill: rgb(0,0,0); fill-rule: nonzero; opacity: 1;" vector-effect="non-scaling-stroke"  transform=" translate(0, 0)" d="M -2.44499 -2.44499 L 2.44499 -2.44499 L 2.44499 2.44499 L -2.44499 2.44499 z" stroke-linecap="round" />
</g>
<g transform="matrix(0 0.08 0.67 0 30.29 39.61)" id="Bz9TF0yhFEw-14sQCphMo"  >
<path style="stroke: rgb(139,52,162); stroke-width: 0; stroke-dasharray: none; stroke-linecap: butt; stroke-dashoffset: 0; stroke-linejoin: miter; stroke-miterlimit: 4; fill: rgb(0,0,0); fill-rule: nonzero; opacity: 1;" vector-effect="non-scaling-stroke"  transform=" translate(0, 0)" d="M -2.44499 -2.44499 L 2.44499 -2.44499 L 2.44499 2.44499 L -2.44499 2.44499 z" stroke-linecap="round" />
</g>
<g transform="matrix(0 0.08 0.67 0 26.26 39.61)" id="rf41d24w-OcZJRrBMZe77"  >
<path style="stroke: rgb(139,52,162); stroke-width: 0; stroke-dasharray: none; stroke-linecap: butt; stroke-dashoffset: 0; stroke-linejoin: miter; stroke-miterlimit: 4; fill: rgb(0,0,0); fill-rule: nonzero; opacity: 1;" vector-effect="non-scaling-stroke"  transform=" translate(0, 0)" d="M -2.44499 -2.44499 L 2.44499 -2.44499 L 2.44499 2.44499 L -2.44499 2.44499 z" stroke-linecap="round" />
</g>
<g transform="matrix(0 0.08 0.67 0 22.54 39.59)" id="I_3q4b06XsvnS2aAOOLhF"  >
<path style="stroke: rgb(139,52,162); stroke-width: 0; stroke-dasharray: none; stroke-linecap: butt; stroke-dashoffset: 0; stroke-linejoin: miter; stroke-miterlimit: 4; fill: rgb(0,0,0); fill-rule: nonzero; opacity: 1;" vector-effect="non-scaling-stroke"  transform=" translate(0, 0)" d="M -2.44499 -2.44499 L 2.44499 -2.44499 L 2.44499 2.44499 L -2.44499 2.44499 z" stroke-linecap="round" />
</g>
<g transform="matrix(0 0.08 0.67 0 18.51 39.59)" id="ZZPPYOi-CumCj4h9WSFYt"  >
<path style="stroke: rgb(139,52,162); stroke-width: 0; stroke-dasharray: none; stroke-linecap: butt; stroke-dashoffset: 0; stroke-linejoin: miter; stroke-miterlimit: 4; fill: rgb(0,0,0); fill-rule: nonzero; opacity: 1;" vector-effect="non-scaling-stroke"  transform=" translate(0, 0)" d="M -2.44499 -2.44499 L 2.44499 -2.44499 L 2.44499 2.44499 L -2.44499 2.44499 z" stroke-linecap="round" />
</g>
<g transform="matrix(0 0.08 0.67 0 14.42 39.6)" id="D_oUK1DuMp4psX-tl5wq0"  >
<path style="stroke: rgb(139,52,162); stroke-width: 0; stroke-dasharray: none; stroke-linecap: butt; stroke-dashoffset: 0; stroke-linejoin: miter; stroke-miterlimit: 4; fill: rgb(0,0,0); fill-rule: nonzero; opacity: 1;" vector-effect="non-scaling-stroke"  transform=" translate(0, 0)" d="M -2.44499 -2.44499 L 2.44499 -2.44499 L 2.44499 2.44499 L -2.44499 2.44499 z" stroke-linecap="round" />
</g>
<g transform="matrix(0 0.08 0.67 0 10.37 39.6)" id="EMMIq4LYuSurZjzT8zefi"  >
<path style="stroke: rgb(139,52,162); stroke-width: 0; stroke-dasharray: none; stroke-linecap: butt; stroke-dashoffset: 0; stroke-linejoin: miter; stroke-miterlimit: 4; fill: rgb(0,0,0); fill-rule: nonzero; opacity: 1;" vector-effect="non-scaling-stroke"  transform=" translate(0, 0)" d="M -2.44499 -2.44499 L 2.44499 -2.44499 L 2.44499 2.44499 L -2.44499 2.44499 z" stroke-linecap="round" />
</g>
<g transform="matrix(0 0.08 0.67 0 6.03 39.6)" id="HmyataW3SS9oiYOqu6b2m"  >
<path style="stroke: rgb(139,52,162); stroke-width: 0; stroke-dasharray: none; stroke-linecap: butt; stroke-dashoffset: 0; stroke-linejoin: miter; stroke-miterlimit: 4; fill: rgb(0,0,0); fill-rule: nonzero; opacity: 1;" vector-effect="non-scaling-stroke"  transform=" translate(0, 0)" d="M -2.44499 -2.44499 L 2.44499 -2.44499 L 2.44499 2.44499 L -2.44499 2.44499 z" stroke-linecap="round" />
</g>
<g transform="matrix(0 -0.6 0.08 0 4.69 37.91)" id="Ng8oIDhLor4_K9sJCQEFk"  >
<path style="stroke: rgb(139,52,162); stroke-width: 0; stroke-dasharray: none; stroke-linecap: butt; stroke-dashoffset: 0; stroke-linejoin: miter; stroke-miterlimit: 4; fill: rgb(0,0,0); fill-rule: nonzero; opacity: 1;" vector-effect="non-scaling-stroke"  transform=" translate(0, 0)" d="M -2.44499 -2.44499 L 2.44499 -2.44499 L 2.44499 2.44499 L -2.44499 2.44499 z" stroke-linecap="round" />
</g>
<g transform="matrix(0 0.07 0.91 0 37.55 4.76)" id="dSP65oEp0JMh1TZHnJUzP"  >
<path style="stroke: rgb(139,52,162); stroke-width: 0; stroke-dasharray: none; stroke-linecap: butt; stroke-dashoffset: 0; stroke-linejoin: miter; stroke-miterlimit: 4; fill: rgb(0,0,0); fill-rule: nonzero; opacity: 1;" vector-effect="non-scaling-stroke"  transform=" translate(0, 0)" d="M -2.44499 -2.44499 L 2.44499 -2.44499 L 2.44499 2.44499 L -2.44499 2.44499 z" stroke-linecap="round" />
</g>
<g transform="matrix(0.52 -0.46 0.06 0.04 30.96 3.64)" id="J6yUVuefAgSbee4HkUeEq"  >
<path style="stroke: rgb(139,52,162); stroke-width: 0; stroke-dasharray: none; stroke-linecap: butt; stroke-dashoffset: 0; stroke-linejoin: miter; stroke-miterlimit: 4; fill: rgb(0,0,0); fill-rule: nonzero; opacity: 1;" vector-effect="non-scaling-stroke"  transform=" translate(0, 0)" d="M -2.44499 -2.44499 L 2.44499 -2.44499 L 2.44499 2.44499 L -2.44499 2.44499 z" stroke-linecap="round" />
</g>
<g transform="matrix(0.02 -0.01 -0.01 -0.02 32.83 2.4)" id="NGt3V3D4NCkSluSwWw4sh"  >
<path style="stroke: none; stroke-width: 0; stroke-dasharray: none; stroke-linecap: butt; stroke-dashoffset: 0; stroke-linejoin: miter; stroke-miterlimit: 4; fill: rgb(0,0,0); fill-rule: nonzero; opacity: 1;" vector-effect="non-scaling-stroke"  transform=" translate(-40, -40)" d="M 60 40 L 80 80 L 40 80 L 0 80 L 20 40 L 40 0 L 60 40 z" stroke-linecap="round" />
</g>
<g transform="matrix(0 -0.56 0.08 0 39.77 6.14)" id="lxfNtmBv0g3jh5kDUI6XZ"  >
<path style="stroke: rgb(139,52,162); stroke-width: 0; stroke-dasharray: none; stroke-linecap: butt; stroke-dashoffset: 0; stroke-linejoin: miter; stroke-miterlimit: 4; fill: rgb(0,0,0); fill-rule: nonzero; opacity: 1;" vector-effect="non-scaling-stroke"  transform=" translate(0, 0)" d="M -2.44499 -2.44499 L 2.44499 -2.44499 L 2.44499 2.44499 L -2.44499 2.44499 z" stroke-linecap="round" />
</g>
</svg>